%TF.GenerationSoftware,KiCad,Pcbnew,(6.0.9-0)*%
%TF.CreationDate,2023-07-01T22:34:15+02:00*%
%TF.ProjectId,konstrukt-kicad6,6b6f6e73-7472-4756-9b74-2d6b69636164,rev?*%
%TF.SameCoordinates,Original*%
%TF.FileFunction,Other,Comment*%
%FSLAX46Y46*%
G04 Gerber Fmt 4.6, Leading zero omitted, Abs format (unit mm)*
G04 Created by KiCad (PCBNEW (6.0.9-0)) date 2023-07-01 22:34:15*
%MOMM*%
%LPD*%
G01*
G04 APERTURE LIST*
%ADD10C,0.150000*%
G04 APERTURE END LIST*
D10*
%TO.C,H501*%
X108350800Y-170954000D02*
G75*
G03*
X108350800Y-170954000I-4300000J0D01*
G01*
%TO.C,H2905*%
X276320000Y-20961000D02*
G75*
G03*
X276320000Y-20961000I-4300000J0D01*
G01*
%TO.C,H2903*%
X120480000Y-6001000D02*
G75*
G03*
X120480000Y-6001000I-4300000J0D01*
G01*
%TO.C,H1701*%
X77125000Y-132775000D02*
G75*
G03*
X77125000Y-132775000I-4300000J0D01*
G01*
%TO.C,H803*%
X35620000Y-86040000D02*
G75*
G03*
X35620000Y-86040000I-4300000J0D01*
G01*
%TO.C,H1001*%
X257260000Y-102081000D02*
G75*
G03*
X257260000Y-102081000I-4300000J0D01*
G01*
%TO.C,H1105*%
X35581000Y-197866000D02*
G75*
G03*
X35581000Y-197866000I-4300000J0D01*
G01*
%TO.C,H1902*%
X305740000Y-67921000D02*
G75*
G03*
X305740000Y-67921000I-4300000J0D01*
G01*
%TO.C,H1306*%
X347285000Y-91905000D02*
G75*
G03*
X347285000Y-91905000I-4300000J0D01*
G01*
%TO.C,H2201*%
X257260000Y-77981000D02*
G75*
G03*
X257260000Y-77981000I-4300000J0D01*
G01*
%TO.C,H2407*%
X215700000Y-196941000D02*
G75*
G03*
X215700000Y-196941000I-4300000J0D01*
G01*
%TO.C,H2001*%
X347291000Y-39962000D02*
G75*
G03*
X347291000Y-39962000I-4300000J0D01*
G01*
%TO.C,H504*%
X167230000Y-176940000D02*
G75*
G03*
X167230000Y-176940000I-4300000J0D01*
G01*
%TO.C,H1103*%
X59811000Y-185961000D02*
G75*
G03*
X59811000Y-185961000I-4300000J0D01*
G01*
%TO.C,H1203*%
X77126000Y-39961000D02*
G75*
G03*
X77126000Y-39961000I-4300000J0D01*
G01*
%TO.C,H2404*%
X257260000Y-168941000D02*
G75*
G03*
X257260000Y-168941000I-4300000J0D01*
G01*
%TO.C,H1002*%
X257260000Y-116071000D02*
G75*
G03*
X257260000Y-116071000I-4300000J0D01*
G01*
%TO.C,H304*%
X167206400Y-88658000D02*
G75*
G03*
X167206400Y-88658000I-4300000J0D01*
G01*
%TO.C,H1101*%
X18280000Y-185921000D02*
G75*
G03*
X18280000Y-185921000I-4300000J0D01*
G01*
%TO.C,H1702*%
X59815000Y-132775000D02*
G75*
G03*
X59815000Y-132775000I-4300000J0D01*
G01*
%TO.C,H2603*%
X329985000Y-165903000D02*
G75*
G03*
X329985000Y-165903000I-4300000J0D01*
G01*
%TO.C,H2401*%
X198380000Y-154941000D02*
G75*
G03*
X198380000Y-154941000I-4300000J0D01*
G01*
%TO.C,H2602*%
X305740000Y-165903000D02*
G75*
G03*
X305740000Y-165903000I-4300000J0D01*
G01*
%TO.C,H103*%
X9340000Y-7000000D02*
G75*
G03*
X9340000Y-7000000I-3200000J0D01*
G01*
%TO.C,H1201*%
X18280000Y-39961000D02*
G75*
G03*
X18280000Y-39961000I-4300000J0D01*
G01*
%TO.C,H2601*%
X288429000Y-165903000D02*
G75*
G03*
X288429000Y-165903000I-4300000J0D01*
G01*
%TO.C,H1202*%
X59811000Y-39961000D02*
G75*
G03*
X59811000Y-39961000I-4300000J0D01*
G01*
%TO.C,H2412*%
X239950000Y-182941000D02*
G75*
G03*
X239950000Y-182941000I-4300000J0D01*
G01*
%TO.C,H2912*%
X245140000Y-6001000D02*
G75*
G03*
X245140000Y-6001000I-4300000J0D01*
G01*
%TO.C,H2906*%
X120480000Y-20961000D02*
G75*
G03*
X120480000Y-20961000I-4300000J0D01*
G01*
%TO.C,H2908*%
X317820000Y-20961000D02*
G75*
G03*
X317820000Y-20961000I-4300000J0D01*
G01*
%TO.C,H2403*%
X215700000Y-168941000D02*
G75*
G03*
X215700000Y-168941000I-4300000J0D01*
G01*
%TO.C,H702*%
X59880000Y-69940000D02*
G75*
G03*
X59880000Y-69940000I-4300000J0D01*
G01*
%TO.C,H2301*%
X257260000Y-39961000D02*
G75*
G03*
X257260000Y-39961000I-4300000J0D01*
G01*
%TO.C,H503*%
X149920000Y-170930000D02*
G75*
G03*
X149920000Y-170930000I-4300000J0D01*
G01*
%TO.C,H1303*%
X288429000Y-103920000D02*
G75*
G03*
X288429000Y-103920000I-4300000J0D01*
G01*
%TO.C,H602*%
X18420000Y-69980000D02*
G75*
G03*
X18420000Y-69980000I-4300000J0D01*
G01*
%TO.C,H2901*%
X47720000Y-20961000D02*
G75*
G03*
X47720000Y-20961000I-4300000J0D01*
G01*
%TO.C,H2402*%
X257260000Y-154941000D02*
G75*
G03*
X257260000Y-154941000I-4300000J0D01*
G01*
%TO.C,H1302*%
X329985000Y-91905000D02*
G75*
G03*
X329985000Y-91905000I-4300000J0D01*
G01*
%TO.C,H801*%
X77200000Y-86000000D02*
G75*
G03*
X77200000Y-86000000I-4300000J0D01*
G01*
%TO.C,H301*%
X108327200Y-82672000D02*
G75*
G03*
X108327200Y-82672000I-4300000J0D01*
G01*
%TO.C,H1301*%
X288429000Y-91901000D02*
G75*
G03*
X288429000Y-91901000I-4300000J0D01*
G01*
%TO.C,H1007*%
X215700000Y-102081000D02*
G75*
G03*
X215700000Y-102081000I-4300000J0D01*
G01*
%TO.C,H401*%
X108350800Y-126824000D02*
G75*
G03*
X108350800Y-126824000I-4300000J0D01*
G01*
%TO.C,H104*%
X353950000Y-7000000D02*
G75*
G03*
X353950000Y-7000000I-3200000J0D01*
G01*
%TO.C,H1008*%
X215628000Y-116078000D02*
G75*
G03*
X215628000Y-116078000I-4300000J0D01*
G01*
%TO.C,H2911*%
X155100000Y-6001000D02*
G75*
G03*
X155100000Y-6001000I-4300000J0D01*
G01*
%TO.C,H2002*%
X329981000Y-39962000D02*
G75*
G03*
X329981000Y-39962000I-4300000J0D01*
G01*
%TO.C,H1006*%
X239950000Y-130041000D02*
G75*
G03*
X239950000Y-130041000I-4300000J0D01*
G01*
%TO.C,H1305*%
X305740000Y-91901000D02*
G75*
G03*
X305740000Y-91901000I-4300000J0D01*
G01*
%TO.C,H2303*%
X215700000Y-39961000D02*
G75*
G03*
X215700000Y-39961000I-4300000J0D01*
G01*
%TO.C,H1601*%
X77119000Y-160734000D02*
G75*
G03*
X77119000Y-160734000I-4300000J0D01*
G01*
%TO.C,H1304*%
X329985000Y-103925000D02*
G75*
G03*
X329985000Y-103925000I-4300000J0D01*
G01*
%TO.C,H1802*%
X18263000Y-146714000D02*
G75*
G03*
X18263000Y-146714000I-4300000J0D01*
G01*
%TO.C,H701*%
X35640000Y-69980000D02*
G75*
G03*
X35640000Y-69980000I-4300000J0D01*
G01*
%TO.C,H2702*%
X167210000Y-39960000D02*
G75*
G03*
X167210000Y-39960000I-4300000J0D01*
G01*
%TO.C,H2405*%
X215700000Y-182941000D02*
G75*
G03*
X215700000Y-182941000I-4300000J0D01*
G01*
%TO.C,H2902*%
X89360000Y-20961000D02*
G75*
G03*
X89360000Y-20961000I-4300000J0D01*
G01*
%TO.C,H2409*%
X198380000Y-168941000D02*
G75*
G03*
X198380000Y-168941000I-4300000J0D01*
G01*
%TO.C,H502*%
X125673600Y-176948400D02*
G75*
G03*
X125673600Y-176948400I-4300000J0D01*
G01*
%TO.C,H2502*%
X329985000Y-127903000D02*
G75*
G03*
X329985000Y-127903000I-4300000J0D01*
G01*
%TO.C,H404*%
X167230000Y-132810000D02*
G75*
G03*
X167230000Y-132810000I-4300000J0D01*
G01*
%TO.C,H2504*%
X329985000Y-141903000D02*
G75*
G03*
X329985000Y-141903000I-4300000J0D01*
G01*
%TO.C,H1602*%
X35574000Y-160734000D02*
G75*
G03*
X35574000Y-160734000I-4300000J0D01*
G01*
%TO.C,H1104*%
X77119000Y-185961000D02*
G75*
G03*
X77119000Y-185961000I-4300000J0D01*
G01*
%TO.C,H1106*%
X77198000Y-197866000D02*
G75*
G03*
X77198000Y-197866000I-4300000J0D01*
G01*
%TO.C,H303*%
X149896400Y-82648000D02*
G75*
G03*
X149896400Y-82648000I-4300000J0D01*
G01*
%TO.C,H2503*%
X288429000Y-141903000D02*
G75*
G03*
X288429000Y-141903000I-4300000J0D01*
G01*
%TO.C,H601*%
X77200000Y-69940000D02*
G75*
G03*
X77200000Y-69940000I-4300000J0D01*
G01*
%TO.C,H101*%
X9340000Y-202990000D02*
G75*
G03*
X9340000Y-202990000I-3200000J0D01*
G01*
%TO.C,H2302*%
X239950000Y-39961000D02*
G75*
G03*
X239950000Y-39961000I-4300000J0D01*
G01*
%TO.C,H302*%
X125650000Y-88666400D02*
G75*
G03*
X125650000Y-88666400I-4300000J0D01*
G01*
%TO.C,H2408*%
X257260000Y-196941000D02*
G75*
G03*
X257260000Y-196941000I-4300000J0D01*
G01*
%TO.C,H1901*%
X347285000Y-67921000D02*
G75*
G03*
X347285000Y-67921000I-4300000J0D01*
G01*
%TO.C,H1102*%
X35579000Y-185959000D02*
G75*
G03*
X35579000Y-185959000I-4300000J0D01*
G01*
%TO.C,H1005*%
X257260000Y-130041000D02*
G75*
G03*
X257260000Y-130041000I-4300000J0D01*
G01*
%TO.C,H2904*%
X210520000Y-6001000D02*
G75*
G03*
X210520000Y-6001000I-4300000J0D01*
G01*
%TO.C,H2910*%
X245140000Y-20961000D02*
G75*
G03*
X245140000Y-20961000I-4300000J0D01*
G01*
%TO.C,H403*%
X149920000Y-126800000D02*
G75*
G03*
X149920000Y-126800000I-4300000J0D01*
G01*
%TO.C,H802*%
X59860000Y-86000000D02*
G75*
G03*
X59860000Y-86000000I-4300000J0D01*
G01*
%TO.C,H2305*%
X198380000Y-77981000D02*
G75*
G03*
X198380000Y-77981000I-4300000J0D01*
G01*
%TO.C,H2604*%
X347285000Y-165903000D02*
G75*
G03*
X347285000Y-165903000I-4300000J0D01*
G01*
%TO.C,H1011*%
X215700000Y-130041000D02*
G75*
G03*
X215700000Y-130041000I-4300000J0D01*
G01*
%TO.C,H2101*%
X288429000Y-39961000D02*
G75*
G03*
X288429000Y-39961000I-4300000J0D01*
G01*
%TO.C,H2406*%
X257260000Y-182941000D02*
G75*
G03*
X257260000Y-182941000I-4300000J0D01*
G01*
%TO.C,H2501*%
X288429000Y-127903000D02*
G75*
G03*
X288429000Y-127903000I-4300000J0D01*
G01*
%TO.C,H2411*%
X198380000Y-182941000D02*
G75*
G03*
X198380000Y-182941000I-4300000J0D01*
G01*
%TO.C,H1801*%
X18263000Y-132774000D02*
G75*
G03*
X18263000Y-132774000I-4300000J0D01*
G01*
%TO.C,H2414*%
X239950000Y-196941000D02*
G75*
G03*
X239950000Y-196941000I-4300000J0D01*
G01*
%TO.C,H102*%
X353950000Y-202990000D02*
G75*
G03*
X353950000Y-202990000I-3200000J0D01*
G01*
%TO.C,H2909*%
X155100000Y-20961000D02*
G75*
G03*
X155100000Y-20961000I-4300000J0D01*
G01*
%TO.C,H2907*%
X210520000Y-20961000D02*
G75*
G03*
X210520000Y-20961000I-4300000J0D01*
G01*
%TO.C,H1010*%
X198356000Y-116078000D02*
G75*
G03*
X198356000Y-116078000I-4300000J0D01*
G01*
%TO.C,H2410*%
X239950000Y-168941000D02*
G75*
G03*
X239950000Y-168941000I-4300000J0D01*
G01*
%TO.C,H402*%
X125673600Y-132818400D02*
G75*
G03*
X125673600Y-132818400I-4300000J0D01*
G01*
%TO.C,H1004*%
X239950000Y-116071000D02*
G75*
G03*
X239950000Y-116071000I-4300000J0D01*
G01*
%TO.C,H2102*%
X288429000Y-53901000D02*
G75*
G03*
X288429000Y-53901000I-4300000J0D01*
G01*
%TO.C,H2701*%
X108330000Y-39970000D02*
G75*
G03*
X108330000Y-39970000I-4300000J0D01*
G01*
%TO.C,H804*%
X18430000Y-86000000D02*
G75*
G03*
X18430000Y-86000000I-4300000J0D01*
G01*
%TO.C,H2304*%
X198380000Y-39961000D02*
G75*
G03*
X198380000Y-39961000I-4300000J0D01*
G01*
%TO.C,H2413*%
X198380000Y-196941000D02*
G75*
G03*
X198380000Y-196941000I-4300000J0D01*
G01*
%TO.C,H1012*%
X198380000Y-130041000D02*
G75*
G03*
X198380000Y-130041000I-4300000J0D01*
G01*
%TO.C,H1003*%
X239950000Y-102081000D02*
G75*
G03*
X239950000Y-102081000I-4300000J0D01*
G01*
%TO.C,H1009*%
X198380000Y-102081000D02*
G75*
G03*
X198380000Y-102081000I-4300000J0D01*
G01*
%TD*%
M02*
