%TF.GenerationSoftware,KiCad,Pcbnew,(6.0.9-0)*%
%TF.CreationDate,2023-07-01T22:34:15+02:00*%
%TF.ProjectId,konstrukt-kicad6,6b6f6e73-7472-4756-9b74-2d6b69636164,rev?*%
%TF.SameCoordinates,Original*%
%TF.FileFunction,Soldermask,Bot*%
%TF.FilePolarity,Negative*%
%FSLAX46Y46*%
G04 Gerber Fmt 4.6, Leading zero omitted, Abs format (unit mm)*
G04 Created by KiCad (PCBNEW (6.0.9-0)) date 2023-07-01 22:34:15*
%MOMM*%
%LPD*%
G01*
G04 APERTURE LIST*
%ADD10R,1.600000X1.600000*%
%ADD11O,1.600000X1.600000*%
%ADD12C,8.600000*%
%ADD13C,4.700000*%
%ADD14O,2.700000X5.400000*%
%ADD15R,1.800000X1.800000*%
%ADD16C,1.800000*%
%ADD17C,6.400000*%
%ADD18C,3.600000*%
%ADD19C,3.000000*%
%ADD20R,4.600000X2.000000*%
%ADD21O,4.200000X2.000000*%
%ADD22O,2.000000X4.200000*%
%ADD23R,1.700000X1.700000*%
%ADD24O,1.700000X1.700000*%
G04 APERTURE END LIST*
%TO.C,*%
G36*
X344600000Y-204376000D02*
G01*
X344599000Y-204382000D01*
X344561000Y-204487000D01*
X344484000Y-204697000D01*
X344380000Y-204972000D01*
X344356000Y-205035000D01*
X344254000Y-205301000D01*
X344181000Y-205494000D01*
X344150000Y-205576000D01*
X344125000Y-205591000D01*
X343987000Y-205596000D01*
X343834000Y-205590000D01*
X343617000Y-205020000D01*
X343597000Y-204967000D01*
X343495000Y-204697000D01*
X343420000Y-204496000D01*
X343387000Y-204404000D01*
X343385000Y-204397000D01*
X343396000Y-204364000D01*
X343501000Y-204364000D01*
X343627000Y-204370000D01*
X343800000Y-204844000D01*
X343883000Y-205071000D01*
X343952000Y-205255000D01*
X343983000Y-205330000D01*
X344011000Y-205272000D01*
X344079000Y-205101000D01*
X344172000Y-204855000D01*
X344350000Y-204370000D01*
X344475000Y-204364000D01*
X344534000Y-204363000D01*
X344600000Y-204376000D01*
G37*
G36*
X342587000Y-203951000D02*
G01*
X342591000Y-203974000D01*
X342621000Y-204083000D01*
X342697000Y-204144000D01*
X342889000Y-204180000D01*
X343000000Y-204180000D01*
X343000000Y-204400000D01*
X342620000Y-204400000D01*
X342620000Y-205380000D01*
X343040000Y-205380000D01*
X343040000Y-205601000D01*
X342505000Y-205595000D01*
X341970000Y-205590000D01*
X341970000Y-205390000D01*
X342165000Y-205384000D01*
X342360000Y-205379000D01*
X342360000Y-203860000D01*
X342575000Y-203860000D01*
X342587000Y-203951000D01*
G37*
G36*
X325030000Y-201910000D02*
G01*
X325041000Y-201945000D01*
X325128000Y-202206000D01*
X325192000Y-202390000D01*
X325221000Y-202460000D01*
X325223000Y-202458000D01*
X325264000Y-202370000D01*
X325345000Y-202175000D01*
X325452000Y-201910000D01*
X325670000Y-201360000D01*
X325816000Y-201360000D01*
X325911000Y-201363000D01*
X325956000Y-201385000D01*
X325948000Y-201408000D01*
X325893000Y-201548000D01*
X325799000Y-201785000D01*
X325680000Y-202085000D01*
X325590000Y-202308000D01*
X325492000Y-202548000D01*
X325430000Y-202684000D01*
X325392000Y-202745000D01*
X325365000Y-202760000D01*
X325352000Y-202760000D01*
X325324000Y-202796000D01*
X325376000Y-202920000D01*
X325390000Y-202948000D01*
X325515000Y-203087000D01*
X325715000Y-203116000D01*
X325860000Y-203110000D01*
X325860000Y-203224000D01*
X325853000Y-203322000D01*
X325805000Y-203346000D01*
X325669000Y-203358000D01*
X325376000Y-203303000D01*
X325180000Y-203131000D01*
X325180000Y-203129000D01*
X325141000Y-203033000D01*
X325066000Y-202827000D01*
X324966000Y-202548000D01*
X324854000Y-202234000D01*
X324745000Y-201922000D01*
X324651000Y-201649000D01*
X324585000Y-201452000D01*
X324560000Y-201369000D01*
X324584000Y-201364000D01*
X324706000Y-201360000D01*
X324853000Y-201360000D01*
X325030000Y-201910000D01*
G37*
G36*
X342860000Y-202222000D02*
G01*
X342823000Y-202363000D01*
X342804000Y-202406000D01*
X342610000Y-202647000D01*
X342336000Y-202780000D01*
X342294000Y-202787000D01*
X342002000Y-202761000D01*
X341745000Y-202630000D01*
X341592000Y-202433000D01*
X341508000Y-202132000D01*
X341515236Y-202061000D01*
X341796000Y-202061000D01*
X341799000Y-202120000D01*
X341873000Y-202366000D01*
X342033000Y-202512000D01*
X342171000Y-202538000D01*
X342350000Y-202512000D01*
X342372000Y-202501000D01*
X342527000Y-202330000D01*
X342584000Y-202046000D01*
X342579000Y-201933000D01*
X342532000Y-201792000D01*
X342418000Y-201640000D01*
X342226000Y-201583000D01*
X342057000Y-201596000D01*
X341911000Y-201701000D01*
X341847000Y-201797000D01*
X341796000Y-202061000D01*
X341515236Y-202061000D01*
X341540000Y-201818000D01*
X341690000Y-201544000D01*
X341828000Y-201431000D01*
X342120000Y-201334000D01*
X342435000Y-201368000D01*
X342642000Y-201496000D01*
X342812000Y-201724000D01*
X342831000Y-201769000D01*
X342863000Y-201882000D01*
X342868000Y-202046000D01*
X342869000Y-202050000D01*
X342860000Y-202222000D01*
G37*
G36*
X339054000Y-201357000D02*
G01*
X339258000Y-201476000D01*
X339367000Y-201657000D01*
X339348000Y-201879000D01*
X339343000Y-201889000D01*
X339250000Y-202009000D01*
X339220000Y-202029000D01*
X339136000Y-202066000D01*
X338979000Y-202115000D01*
X338708000Y-202191000D01*
X338676000Y-202201000D01*
X338515000Y-202303000D01*
X338499000Y-202448000D01*
X338576000Y-202527000D01*
X338800000Y-202568000D01*
X338815000Y-202568000D01*
X339011000Y-202533000D01*
X339122000Y-202405000D01*
X339164000Y-202320000D01*
X339425000Y-202320000D01*
X339414000Y-202401000D01*
X339403000Y-202455000D01*
X339268000Y-202653000D01*
X339018000Y-202770000D01*
X338798000Y-202792000D01*
X338495000Y-202741000D01*
X338440000Y-202716000D01*
X338270000Y-202558000D01*
X338222000Y-202351000D01*
X338311000Y-202145000D01*
X338371000Y-202087000D01*
X338525000Y-202006000D01*
X338787000Y-201929000D01*
X338942000Y-201884000D01*
X339067000Y-201818000D01*
X339100000Y-201730000D01*
X339064000Y-201636000D01*
X338927000Y-201559000D01*
X338749000Y-201554000D01*
X338593000Y-201633000D01*
X338586000Y-201640000D01*
X338540000Y-201713000D01*
X338522000Y-201731000D01*
X338397000Y-201740000D01*
X338255000Y-201740000D01*
X338268000Y-201677000D01*
X338268000Y-201673000D01*
X338389000Y-201472000D01*
X338640000Y-201348000D01*
X338786000Y-201325000D01*
X339054000Y-201357000D01*
G37*
G36*
X337288000Y-201094000D02*
G01*
X337298000Y-201165000D01*
X337331000Y-201274000D01*
X337409000Y-201329000D01*
X337635000Y-201360000D01*
X337760000Y-201360000D01*
X337760000Y-201580000D01*
X337320000Y-201580000D01*
X337320000Y-201986000D01*
X337317000Y-202249000D01*
X337298000Y-202453000D01*
X337257000Y-202577000D01*
X337182000Y-202665000D01*
X337102000Y-202725000D01*
X336930000Y-202788000D01*
X336922000Y-202789000D01*
X336804000Y-202793000D01*
X336651000Y-202785000D01*
X336561000Y-202771000D01*
X336553000Y-202756000D01*
X336540000Y-202646000D01*
X336540000Y-202535000D01*
X336652000Y-202548000D01*
X336790000Y-202548000D01*
X336969000Y-202458000D01*
X337020000Y-202397000D01*
X337020000Y-201580000D01*
X336460000Y-201580000D01*
X336460000Y-201360000D01*
X337019000Y-201360000D01*
X337024000Y-201165000D01*
X337030000Y-200970000D01*
X337274000Y-200958000D01*
X337288000Y-201094000D01*
G37*
G36*
X333383000Y-201825000D02*
G01*
X333384000Y-201881000D01*
X333393000Y-202160000D01*
X333414000Y-202326000D01*
X333456000Y-202420000D01*
X333527000Y-202485000D01*
X333593000Y-202515000D01*
X333779000Y-202532000D01*
X333934000Y-202488000D01*
X333951000Y-202475000D01*
X334010000Y-202411000D01*
X334042000Y-202311000D01*
X334056000Y-202132000D01*
X334059000Y-201835000D01*
X334060000Y-201360000D01*
X334363000Y-201360000D01*
X334356000Y-201885000D01*
X334353000Y-202073000D01*
X334346000Y-202294000D01*
X334334000Y-202418000D01*
X334315000Y-202486000D01*
X334223000Y-202634000D01*
X334002000Y-202774000D01*
X333900000Y-202791000D01*
X333652000Y-202762000D01*
X333462000Y-202653000D01*
X333455000Y-202646000D01*
X333399000Y-202600000D01*
X333396000Y-202602000D01*
X333372000Y-202680000D01*
X333360000Y-202760000D01*
X333100000Y-202760000D01*
X333100000Y-201360000D01*
X333376000Y-201360000D01*
X333383000Y-201825000D01*
G37*
G36*
X330510000Y-200970000D02*
G01*
X330521000Y-201100000D01*
X330528000Y-201165000D01*
X330547000Y-201260000D01*
X330627000Y-201326000D01*
X330825000Y-201356000D01*
X331000000Y-201365000D01*
X331000000Y-201580000D01*
X330543000Y-201580000D01*
X330536000Y-202045000D01*
X330532000Y-202306000D01*
X330524000Y-202455000D01*
X330510000Y-202533000D01*
X330484000Y-202585000D01*
X330444000Y-202639000D01*
X330221000Y-202774000D01*
X330208000Y-202777000D01*
X330060000Y-202791000D01*
X329888000Y-202789000D01*
X329782000Y-202771000D01*
X329773000Y-202757000D01*
X329760000Y-202649000D01*
X329760000Y-202540000D01*
X329905000Y-202545000D01*
X330083000Y-202531000D01*
X330214000Y-202443000D01*
X330222000Y-202430000D01*
X330240000Y-202365000D01*
X330251000Y-202232000D01*
X330256000Y-201985000D01*
X330263000Y-201580000D01*
X329680000Y-201580000D01*
X329680000Y-201360000D01*
X330260000Y-201360000D01*
X330260000Y-200958000D01*
X330510000Y-200970000D01*
G37*
G36*
X327385000Y-202760000D02*
G01*
X327371000Y-202670000D01*
X327366000Y-202643000D01*
X327347000Y-202580000D01*
X327343000Y-202582000D01*
X327276000Y-202641000D01*
X327246000Y-202669000D01*
X327013000Y-202780000D01*
X326998000Y-202783000D01*
X326712000Y-202760000D01*
X326464000Y-202609000D01*
X326303000Y-202357000D01*
X326280000Y-202274000D01*
X326268428Y-202090000D01*
X326543000Y-202090000D01*
X326607000Y-202346000D01*
X326766000Y-202501000D01*
X326889000Y-202534000D01*
X327090000Y-202512000D01*
X327202000Y-202426000D01*
X327299000Y-202266000D01*
X327313000Y-202179000D01*
X327318000Y-201990000D01*
X327299000Y-201846000D01*
X327287000Y-201816000D01*
X327136000Y-201631000D01*
X326903000Y-201584000D01*
X326790000Y-201607000D01*
X326617000Y-201749000D01*
X326544000Y-202012000D01*
X326543000Y-202090000D01*
X326268428Y-202090000D01*
X326260000Y-201956000D01*
X326335000Y-201670000D01*
X326465000Y-201499000D01*
X326708000Y-201358000D01*
X326980000Y-201330000D01*
X327230000Y-201431000D01*
X327319000Y-201499000D01*
X327325000Y-201135000D01*
X327330000Y-200770000D01*
X327620000Y-200758000D01*
X327620000Y-202760000D01*
X327385000Y-202760000D01*
G37*
G36*
X322395000Y-202673000D02*
G01*
X322162000Y-202781000D01*
X321921000Y-202782000D01*
X321649000Y-202668000D01*
X321607000Y-202638000D01*
X321551000Y-202604000D01*
X321522000Y-202655000D01*
X321512000Y-202671000D01*
X321371000Y-202757000D01*
X321168000Y-202771000D01*
X321080000Y-202758000D01*
X321080000Y-202550000D01*
X321166000Y-202557000D01*
X321177000Y-202557000D01*
X321252000Y-202552000D01*
X321292000Y-202497000D01*
X321311000Y-202356000D01*
X321319151Y-202116000D01*
X321594000Y-202116000D01*
X321606000Y-202229000D01*
X321640000Y-202367000D01*
X321787000Y-202519000D01*
X321997000Y-202560000D01*
X322096000Y-202554000D01*
X322171000Y-202511000D01*
X322226000Y-202385000D01*
X322161000Y-202237000D01*
X322099000Y-202198000D01*
X321962000Y-202162000D01*
X321712000Y-202129000D01*
X321594000Y-202116000D01*
X321319151Y-202116000D01*
X321320000Y-202091000D01*
X321325000Y-201919000D01*
X321334000Y-201752000D01*
X321350000Y-201660000D01*
X321381000Y-201589000D01*
X321384000Y-201583000D01*
X321557000Y-201411000D01*
X321807000Y-201331000D01*
X322076000Y-201350000D01*
X322308000Y-201476000D01*
X322329000Y-201500000D01*
X322417000Y-201642000D01*
X322460000Y-201775000D01*
X322460000Y-201781000D01*
X322437000Y-201814000D01*
X322324000Y-201820000D01*
X322189000Y-201820000D01*
X322149000Y-201736000D01*
X322094000Y-201650000D01*
X321917000Y-201566000D01*
X321770000Y-201579000D01*
X321638000Y-201710000D01*
X321626000Y-201740000D01*
X321604000Y-201855000D01*
X321610000Y-201909000D01*
X321904000Y-201943000D01*
X322050000Y-201961000D01*
X322200000Y-201990000D01*
X322302000Y-202033000D01*
X322420000Y-202123000D01*
X322515000Y-202338000D01*
X322513000Y-202385000D01*
X322509000Y-202471000D01*
X322395000Y-202673000D01*
G37*
G36*
X316460000Y-201816000D02*
G01*
X316461000Y-202057000D01*
X316466000Y-202213000D01*
X316479000Y-202299000D01*
X316505000Y-202360000D01*
X316593000Y-202477000D01*
X316777000Y-202536000D01*
X316928000Y-202524000D01*
X317085000Y-202403000D01*
X317086000Y-202400000D01*
X317111000Y-202349000D01*
X317125000Y-202269000D01*
X317132000Y-202115000D01*
X317136000Y-201845000D01*
X317143000Y-201360000D01*
X317422000Y-201360000D01*
X317416000Y-201905000D01*
X317415000Y-201986000D01*
X317411000Y-202245000D01*
X317403000Y-202395000D01*
X317390000Y-202476000D01*
X317367000Y-202530000D01*
X317316000Y-202608000D01*
X317096000Y-202763000D01*
X317028000Y-202782000D01*
X316765000Y-202778000D01*
X316547000Y-202669000D01*
X316465000Y-202619000D01*
X316440000Y-202705000D01*
X316440000Y-202717000D01*
X316419000Y-202754000D01*
X316310000Y-202760000D01*
X316180000Y-202760000D01*
X316180000Y-201360000D01*
X316460000Y-201360000D01*
X316460000Y-201816000D01*
G37*
G36*
X315354000Y-201357000D02*
G01*
X315558000Y-201476000D01*
X315667000Y-201657000D01*
X315648000Y-201879000D01*
X315644000Y-201889000D01*
X315550000Y-202009000D01*
X315520000Y-202029000D01*
X315436000Y-202066000D01*
X315279000Y-202115000D01*
X315008000Y-202191000D01*
X314976000Y-202201000D01*
X314815000Y-202303000D01*
X314799000Y-202448000D01*
X314876000Y-202527000D01*
X315100000Y-202568000D01*
X315115000Y-202568000D01*
X315311000Y-202533000D01*
X315422000Y-202405000D01*
X315464000Y-202320000D01*
X315725000Y-202320000D01*
X315712000Y-202405000D01*
X315703000Y-202445000D01*
X315572000Y-202651000D01*
X315318000Y-202770000D01*
X315098000Y-202792000D01*
X314795000Y-202741000D01*
X314759000Y-202725000D01*
X314579000Y-202573000D01*
X314521000Y-202373000D01*
X314586000Y-202173000D01*
X314776000Y-202024000D01*
X314891000Y-201983000D01*
X315087000Y-201929000D01*
X315242000Y-201884000D01*
X315367000Y-201818000D01*
X315400000Y-201730000D01*
X315364000Y-201636000D01*
X315227000Y-201559000D01*
X315049000Y-201554000D01*
X314893000Y-201633000D01*
X314886000Y-201640000D01*
X314840000Y-201713000D01*
X314822000Y-201731000D01*
X314697000Y-201740000D01*
X314555000Y-201740000D01*
X314568000Y-201677000D01*
X314568000Y-201673000D01*
X314689000Y-201472000D01*
X314940000Y-201348000D01*
X315086000Y-201325000D01*
X315354000Y-201357000D01*
G37*
G36*
X313926000Y-202677000D02*
G01*
X313723000Y-202773000D01*
X313464000Y-202783000D01*
X313192000Y-202671000D01*
X313103000Y-202602000D01*
X313025000Y-202679000D01*
X312927000Y-202748000D01*
X312690000Y-202771000D01*
X312631000Y-202749000D01*
X312620000Y-202659000D01*
X312620000Y-202560000D01*
X312722000Y-202560000D01*
X312794000Y-202548000D01*
X312833000Y-202490000D01*
X312851000Y-202347000D01*
X312854770Y-202236000D01*
X313144000Y-202236000D01*
X313178000Y-202379000D01*
X313328000Y-202522000D01*
X313339000Y-202527000D01*
X313520000Y-202559000D01*
X313531000Y-202559000D01*
X313706000Y-202514000D01*
X313760000Y-202379000D01*
X313738000Y-202285000D01*
X313596000Y-202183000D01*
X313591000Y-202182000D01*
X313455000Y-202157000D01*
X313276000Y-202132000D01*
X313153000Y-202120000D01*
X313146000Y-202132000D01*
X313144000Y-202236000D01*
X312854770Y-202236000D01*
X312860000Y-202082000D01*
X312864000Y-201949000D01*
X312873000Y-201758000D01*
X312888000Y-201655000D01*
X312913000Y-201590000D01*
X312937000Y-201550000D01*
X313126000Y-201385000D01*
X313420000Y-201331000D01*
X313423000Y-201331000D01*
X313581000Y-201340000D01*
X313705000Y-201386000D01*
X313756000Y-201415000D01*
X313879000Y-201516000D01*
X313916000Y-201570000D01*
X313978000Y-201707000D01*
X313990000Y-201800000D01*
X313968000Y-201809000D01*
X313848000Y-201820000D01*
X313834000Y-201820000D01*
X313732000Y-201811000D01*
X313700000Y-201765000D01*
X313626000Y-201638000D01*
X313446000Y-201566000D01*
X313379000Y-201567000D01*
X313207000Y-201653000D01*
X313140000Y-201841000D01*
X313140000Y-201912000D01*
X313405000Y-201938000D01*
X313448000Y-201943000D01*
X313740000Y-201995000D01*
X313919000Y-202086000D01*
X314025000Y-202236000D01*
X314053000Y-202360000D01*
X314049000Y-202379000D01*
X314009000Y-202582000D01*
X313926000Y-202677000D01*
G37*
G36*
X311890000Y-200970000D02*
G01*
X311900000Y-201100000D01*
X311908000Y-201164000D01*
X311936000Y-201274000D01*
X312014000Y-201331000D01*
X312245000Y-201360000D01*
X312380000Y-201360000D01*
X312380000Y-201580000D01*
X311920000Y-201580000D01*
X311920000Y-202007000D01*
X311919000Y-202114000D01*
X311912000Y-202373000D01*
X311897000Y-202502000D01*
X311797000Y-202665000D01*
X311560000Y-202783000D01*
X311553000Y-202784000D01*
X311419000Y-202792000D01*
X311258000Y-202786000D01*
X311161000Y-202771000D01*
X311153000Y-202757000D01*
X311140000Y-202649000D01*
X311140000Y-202541000D01*
X311295000Y-202545000D01*
X311415000Y-202543000D01*
X311514000Y-202511000D01*
X311560000Y-202477000D01*
X311611000Y-202389000D01*
X311634000Y-202228000D01*
X311640000Y-201950000D01*
X311640000Y-201580000D01*
X311060000Y-201580000D01*
X311060000Y-201360000D01*
X311640000Y-201360000D01*
X311640000Y-200958000D01*
X311890000Y-200970000D01*
G37*
G36*
X344530000Y-200790000D02*
G01*
X344540000Y-202760000D01*
X344240000Y-202760000D01*
X344240000Y-201880000D01*
X344160000Y-201880000D01*
X344119000Y-201895000D01*
X344064000Y-201953000D01*
X343968000Y-202085000D01*
X343808000Y-202320000D01*
X343510000Y-202759000D01*
X343345000Y-202760000D01*
X343248000Y-202758000D01*
X343180000Y-202751000D01*
X343181000Y-202750000D01*
X343231000Y-202668000D01*
X343345000Y-202492000D01*
X343500000Y-202254000D01*
X343522000Y-202221000D01*
X343673000Y-201986000D01*
X343780000Y-201815000D01*
X343820000Y-201742000D01*
X343780000Y-201667000D01*
X343676000Y-201495000D01*
X343530000Y-201262000D01*
X343528000Y-201258000D01*
X343383000Y-201028000D01*
X343279000Y-200860000D01*
X343240000Y-200792000D01*
X343272000Y-200785000D01*
X343404000Y-200784000D01*
X343569000Y-200790000D01*
X343834000Y-201200000D01*
X343855000Y-201232000D01*
X343994000Y-201445000D01*
X344076000Y-201558000D01*
X344126000Y-201605000D01*
X344170000Y-201616000D01*
X344240000Y-201622000D01*
X344240000Y-200778000D01*
X344530000Y-200790000D01*
G37*
G36*
X340580000Y-201355000D02*
G01*
X340758000Y-201468000D01*
X340764000Y-201474000D01*
X340822000Y-201520000D01*
X340825000Y-201518000D01*
X340850000Y-201440000D01*
X340864000Y-201360000D01*
X341120000Y-201360000D01*
X341120000Y-202760000D01*
X340843000Y-202760000D01*
X340836000Y-202285000D01*
X340835000Y-202179000D01*
X340826000Y-201924000D01*
X340804000Y-201774000D01*
X340759000Y-201688000D01*
X340681000Y-201625000D01*
X340669000Y-201617000D01*
X340485000Y-201578000D01*
X340304000Y-201620000D01*
X340293000Y-201628000D01*
X340223000Y-201692000D01*
X340183000Y-201799000D01*
X340165000Y-201987000D01*
X340160000Y-202295000D01*
X340160000Y-202760000D01*
X339856000Y-202760000D01*
X339864000Y-202245000D01*
X339864000Y-202217000D01*
X339870000Y-201946000D01*
X339878000Y-201787000D01*
X339892000Y-201696000D01*
X339917000Y-201630000D01*
X339950000Y-201564000D01*
X340126000Y-201386000D01*
X340390000Y-201332000D01*
X340580000Y-201355000D01*
G37*
G36*
X334884000Y-201327000D02*
G01*
X335134000Y-201382000D01*
X335306000Y-201512000D01*
X335316000Y-201526000D01*
X335363000Y-201580000D01*
X335384000Y-201545000D01*
X335400000Y-201425000D01*
X335400000Y-201360000D01*
X336060000Y-201360000D01*
X336060000Y-201580000D01*
X335660000Y-201580000D01*
X335660000Y-202539000D01*
X335865000Y-202544000D01*
X336070000Y-202550000D01*
X336082000Y-202760000D01*
X334838000Y-202760000D01*
X334850000Y-202550000D01*
X335117000Y-202544000D01*
X335383000Y-202539000D01*
X335377000Y-202224000D01*
X335375000Y-202159000D01*
X335361000Y-201947000D01*
X335326000Y-201825000D01*
X335255000Y-201739000D01*
X335126000Y-201653000D01*
X334885000Y-201612000D01*
X334720000Y-201610000D01*
X334720000Y-201314000D01*
X334884000Y-201327000D01*
G37*
G36*
X332640000Y-202760000D02*
G01*
X332340000Y-202760000D01*
X332340000Y-202263000D01*
X332258000Y-202193000D01*
X332175000Y-202122000D01*
X331927000Y-202441000D01*
X331678000Y-202760000D01*
X331517000Y-202760000D01*
X331396000Y-202755000D01*
X331375000Y-202735000D01*
X331389000Y-202717000D01*
X331503000Y-202565000D01*
X331649000Y-202370000D01*
X331793000Y-202174000D01*
X331905000Y-202021000D01*
X331952000Y-201952000D01*
X331941000Y-201931000D01*
X331843000Y-201820000D01*
X331662000Y-201643000D01*
X331362000Y-201360000D01*
X331536000Y-201360000D01*
X331710000Y-201361000D01*
X332330000Y-201925000D01*
X332340000Y-201348000D01*
X332350000Y-200770000D01*
X332640000Y-200758000D01*
X332640000Y-202760000D01*
G37*
G36*
X320780000Y-202760000D02*
G01*
X320500000Y-202760000D01*
X320500000Y-202288000D01*
X320326000Y-202118000D01*
X319830000Y-202760000D01*
X319675000Y-202760000D01*
X319587000Y-202758000D01*
X319520000Y-202750000D01*
X319557000Y-202696000D01*
X319666000Y-202546000D01*
X319823000Y-202336000D01*
X320125000Y-201934000D01*
X319908000Y-201732000D01*
X319885000Y-201711000D01*
X319717000Y-201555000D01*
X319600000Y-201445000D01*
X319510000Y-201361000D01*
X319684000Y-201360000D01*
X319859000Y-201360000D01*
X320161000Y-201635000D01*
X320273000Y-201736000D01*
X320417000Y-201864000D01*
X320482000Y-201917000D01*
X320491000Y-201849000D01*
X320498000Y-201648000D01*
X320500000Y-201342000D01*
X320500000Y-200760000D01*
X320780000Y-200760000D01*
X320780000Y-202760000D01*
G37*
G36*
X319100000Y-202760000D02*
G01*
X318800000Y-202760000D01*
X318800000Y-202265000D01*
X318715000Y-202195000D01*
X318630000Y-202126000D01*
X318383000Y-202443000D01*
X318135000Y-202760000D01*
X317975000Y-202760000D01*
X317856000Y-202756000D01*
X317835000Y-202735000D01*
X317849000Y-202717000D01*
X317963000Y-202565000D01*
X318109000Y-202370000D01*
X318253000Y-202174000D01*
X318365000Y-202021000D01*
X318412000Y-201952000D01*
X318412000Y-201950000D01*
X318352000Y-201877000D01*
X318213000Y-201734000D01*
X318028000Y-201556000D01*
X317831000Y-201377000D01*
X317859000Y-201366000D01*
X317991000Y-201360000D01*
X318170000Y-201361000D01*
X318474000Y-201640000D01*
X318588000Y-201745000D01*
X318729000Y-201871000D01*
X318789000Y-201920000D01*
X318789000Y-201919000D01*
X318795000Y-201828000D01*
X318799000Y-201621000D01*
X318800000Y-201340000D01*
X318800000Y-200760000D01*
X319100000Y-200760000D01*
X319100000Y-202760000D01*
G37*
G36*
X310620000Y-201580000D02*
G01*
X310160000Y-201580000D01*
X310160000Y-202540000D01*
X310660000Y-202540000D01*
X310660000Y-202760000D01*
X309400000Y-202760000D01*
X309400000Y-202540000D01*
X309880000Y-202540000D01*
X309880000Y-201360000D01*
X310620000Y-201360000D01*
X310620000Y-201580000D01*
G37*
G36*
X308976000Y-201363000D02*
G01*
X309037000Y-201377000D01*
X309028000Y-201399000D01*
X308975000Y-201539000D01*
X308885000Y-201776000D01*
X308770000Y-202078000D01*
X308510000Y-202761000D01*
X308331000Y-202756000D01*
X308152000Y-202750000D01*
X307906000Y-202100000D01*
X307859000Y-201976000D01*
X307754000Y-201698000D01*
X307679000Y-201495000D01*
X307647000Y-201404000D01*
X307644000Y-201389000D01*
X307663000Y-201363000D01*
X307780000Y-201364000D01*
X307924000Y-201370000D01*
X308119000Y-201906000D01*
X308129000Y-201934000D01*
X308225000Y-202191000D01*
X308297000Y-202374000D01*
X308331000Y-202443000D01*
X308333000Y-202442000D01*
X308372000Y-202358000D01*
X308448000Y-202165000D01*
X308547000Y-201902000D01*
X308746000Y-201360000D01*
X308895000Y-201360000D01*
X308976000Y-201363000D01*
G37*
G36*
X310057000Y-200793000D02*
G01*
X310152000Y-200847000D01*
X310199000Y-200948000D01*
X310151000Y-201091000D01*
X310050000Y-201137000D01*
X309918000Y-201114000D01*
X309845000Y-200998000D01*
X309888000Y-200847000D01*
X309911000Y-200823000D01*
X310020000Y-200791000D01*
X310057000Y-200793000D01*
G37*
G36*
X165897000Y-64251000D02*
G01*
X165877000Y-64540000D01*
X165842000Y-64825000D01*
X165789000Y-65157000D01*
X165659000Y-65768000D01*
X165384000Y-66596000D01*
X165015000Y-67311000D01*
X164557000Y-67904000D01*
X164015000Y-68367000D01*
X163716000Y-68541000D01*
X163179000Y-68763000D01*
X162641000Y-68890000D01*
X162456000Y-68905000D01*
X162120000Y-68912000D01*
X161777000Y-68901000D01*
X161510000Y-68872000D01*
X161145000Y-68785000D01*
X160490000Y-68508000D01*
X159912000Y-68093000D01*
X159417000Y-67546000D01*
X159011000Y-66870000D01*
X158803000Y-66390000D01*
X158543000Y-65527000D01*
X158389000Y-64573000D01*
X158338000Y-63510000D01*
X158338000Y-63452000D01*
X159924000Y-63452000D01*
X159957000Y-64305000D01*
X160061000Y-65103000D01*
X160229000Y-65769000D01*
X160487000Y-66378000D01*
X160821000Y-66857000D01*
X161225000Y-67200000D01*
X161696000Y-67402000D01*
X161976000Y-67438000D01*
X162309000Y-67435000D01*
X162590000Y-67392000D01*
X162980000Y-67233000D01*
X163367000Y-66933000D01*
X163477000Y-66814000D01*
X163779000Y-66363000D01*
X164019000Y-65786000D01*
X164073000Y-65616000D01*
X164194000Y-65113000D01*
X164275000Y-64549000D01*
X164323000Y-63876000D01*
X164334000Y-63490000D01*
X164303000Y-62601000D01*
X164192000Y-61798000D01*
X164005000Y-61095000D01*
X163746000Y-60508000D01*
X163419000Y-60052000D01*
X163063000Y-59748000D01*
X162630000Y-59547000D01*
X162627000Y-59547000D01*
X162491000Y-59511000D01*
X162351000Y-59495000D01*
X162130000Y-59491000D01*
X162066000Y-59491000D01*
X161808000Y-59504000D01*
X161605000Y-59551000D01*
X161370000Y-59650000D01*
X161035000Y-59861000D01*
X160665000Y-60261000D01*
X160366000Y-60804000D01*
X160139000Y-61490000D01*
X160068000Y-61813000D01*
X159962000Y-62602000D01*
X159924000Y-63452000D01*
X158338000Y-63452000D01*
X158338000Y-63436000D01*
X158357000Y-62770000D01*
X158412000Y-62179000D01*
X158510000Y-61590000D01*
X158606000Y-61164000D01*
X158778000Y-60605000D01*
X159009000Y-60070000D01*
X159153000Y-59798000D01*
X159583000Y-59175000D01*
X160096000Y-58683000D01*
X160700000Y-58312000D01*
X160946000Y-58207000D01*
X161491000Y-58061000D01*
X162110000Y-58013000D01*
X162271000Y-58014000D01*
X162507000Y-58026000D01*
X162730000Y-58057000D01*
X163135000Y-58153000D01*
X163787000Y-58431000D01*
X164360000Y-58844000D01*
X164850000Y-59388000D01*
X165254000Y-60058000D01*
X165567000Y-60850000D01*
X165787000Y-61760000D01*
X165792000Y-61785000D01*
X165844000Y-62100000D01*
X165878000Y-62374000D01*
X165898000Y-62657000D01*
X165907000Y-62999000D01*
X165909000Y-63450000D01*
X165909000Y-63490000D01*
X165907000Y-63905000D01*
X165897000Y-64251000D01*
G37*
G36*
X143965000Y-58083000D02*
G01*
X144645000Y-58271000D01*
X145050000Y-58456000D01*
X145611000Y-58838000D01*
X146049000Y-59316000D01*
X146357000Y-59882000D01*
X146529000Y-60526000D01*
X146559000Y-60949000D01*
X146506000Y-61525000D01*
X146353000Y-62042000D01*
X146340000Y-62071000D01*
X146135000Y-62435000D01*
X145840000Y-62781000D01*
X145702000Y-62915000D01*
X145388000Y-63169000D01*
X145006000Y-63400000D01*
X144871000Y-63472000D01*
X144581000Y-63609000D01*
X144242000Y-63746000D01*
X143820000Y-63898000D01*
X143278000Y-64077000D01*
X143138000Y-64122000D01*
X142618000Y-64310000D01*
X142218000Y-64492000D01*
X141909000Y-64683000D01*
X141660000Y-64899000D01*
X141570000Y-64997000D01*
X141348000Y-65360000D01*
X141238000Y-65805000D01*
X141236000Y-66220000D01*
X141359000Y-66655000D01*
X141610000Y-67009000D01*
X141631000Y-67030000D01*
X142045000Y-67314000D01*
X142568000Y-67484000D01*
X143201000Y-67540000D01*
X143377000Y-67535000D01*
X143954000Y-67436000D01*
X144444000Y-67217000D01*
X144832000Y-66884000D01*
X144922000Y-66766000D01*
X145145000Y-66351000D01*
X145279000Y-65890000D01*
X145292000Y-65814000D01*
X145312000Y-65705000D01*
X145321000Y-65660000D01*
X146889000Y-65670000D01*
X146883000Y-65770000D01*
X146875000Y-65868000D01*
X146831000Y-66167000D01*
X146769000Y-66462000D01*
X146523000Y-67137000D01*
X146151000Y-67716000D01*
X145663000Y-68190000D01*
X145067000Y-68550000D01*
X144370000Y-68789000D01*
X144221000Y-68821000D01*
X143924000Y-68873000D01*
X143670000Y-68906000D01*
X143643000Y-68908000D01*
X143480000Y-68913000D01*
X143250000Y-68917000D01*
X142827000Y-68907000D01*
X142042000Y-68803000D01*
X141351000Y-68590000D01*
X140765000Y-68273000D01*
X140293000Y-67854000D01*
X139942000Y-67340000D01*
X139871000Y-67192000D01*
X139695000Y-66634000D01*
X139638000Y-66011000D01*
X139638000Y-65928000D01*
X139694000Y-65337000D01*
X139847000Y-64813000D01*
X139848000Y-64810000D01*
X140152000Y-64268000D01*
X140597000Y-63781000D01*
X141169000Y-63365000D01*
X141384000Y-63244000D01*
X141666000Y-63105000D01*
X142001000Y-62964000D01*
X142423000Y-62806000D01*
X142965000Y-62617000D01*
X143105000Y-62569000D01*
X143423000Y-62459000D01*
X143682000Y-62366000D01*
X143835000Y-62309000D01*
X144145000Y-62162000D01*
X144558000Y-61873000D01*
X144819000Y-61540000D01*
X144820000Y-61537000D01*
X144929000Y-61250000D01*
X144960000Y-60918000D01*
X144934000Y-60616000D01*
X144800000Y-60241000D01*
X144722000Y-60112000D01*
X144407000Y-59781000D01*
X143988000Y-59543000D01*
X143492000Y-59411000D01*
X142946000Y-59396000D01*
X142792000Y-59412000D01*
X142447000Y-59482000D01*
X142122000Y-59613000D01*
X141985000Y-59683000D01*
X141853000Y-59773000D01*
X141700000Y-59917000D01*
X141498000Y-60148000D01*
X141293000Y-60521000D01*
X141171000Y-60985000D01*
X141158000Y-61060000D01*
X140075000Y-61060000D01*
X139849000Y-61057000D01*
X139724000Y-61052000D01*
X139671000Y-61041000D01*
X139660000Y-61025000D01*
X139668000Y-60947000D01*
X139689000Y-60777000D01*
X139699000Y-60710000D01*
X139878000Y-60014000D01*
X140187000Y-59407000D01*
X140622000Y-58898000D01*
X141176000Y-58493000D01*
X141845000Y-58198000D01*
X142492000Y-58051000D01*
X143229000Y-58009000D01*
X143965000Y-58083000D01*
G37*
G36*
X112805000Y-61965000D02*
G01*
X112806000Y-62764000D01*
X112808000Y-63510000D01*
X112809000Y-64122000D01*
X112811000Y-64615000D01*
X112813000Y-65003000D01*
X112816000Y-65300000D01*
X112819000Y-65519000D01*
X112823000Y-65676000D01*
X112829000Y-65783000D01*
X112836000Y-65855000D01*
X112844000Y-65906000D01*
X112853000Y-65950000D01*
X112889000Y-66087000D01*
X113093000Y-66593000D01*
X113390000Y-66978000D01*
X113790000Y-67255000D01*
X113829000Y-67274000D01*
X114057000Y-67368000D01*
X114288000Y-67415000D01*
X114600000Y-67434000D01*
X114680000Y-67436000D01*
X114877000Y-67436000D01*
X115009000Y-67424000D01*
X115150000Y-67392000D01*
X115200000Y-67378000D01*
X115680000Y-67166000D01*
X116060000Y-66832000D01*
X116333000Y-66385000D01*
X116490000Y-65833000D01*
X116497000Y-65772000D01*
X116503000Y-65673000D01*
X116508000Y-65524000D01*
X116512000Y-65309000D01*
X116515000Y-65017000D01*
X116517000Y-64633000D01*
X116518000Y-64143000D01*
X116519000Y-63534000D01*
X116520000Y-62793000D01*
X116520000Y-58160000D01*
X118121000Y-58160000D01*
X118115000Y-61945000D01*
X118114000Y-62510000D01*
X118112000Y-63303000D01*
X118110000Y-63958000D01*
X118108000Y-64490000D01*
X118106000Y-64912000D01*
X118103000Y-65239000D01*
X118099000Y-65485000D01*
X118095000Y-65662000D01*
X118089000Y-65787000D01*
X118083000Y-65872000D01*
X118075000Y-65931000D01*
X117953000Y-66504000D01*
X117727000Y-67128000D01*
X117411000Y-67657000D01*
X116991000Y-68117000D01*
X116959000Y-68145000D01*
X116432000Y-68507000D01*
X115804000Y-68761000D01*
X115100000Y-68898000D01*
X114798000Y-68917000D01*
X114086000Y-68881000D01*
X113422000Y-68737000D01*
X113226000Y-68665000D01*
X112912000Y-68523000D01*
X112658000Y-68380000D01*
X112376000Y-68165000D01*
X111912000Y-67662000D01*
X111563000Y-67050000D01*
X111332000Y-66337000D01*
X111311000Y-66243000D01*
X111287000Y-66135000D01*
X111267000Y-66031000D01*
X111251000Y-65915000D01*
X111239000Y-65773000D01*
X111229000Y-65589000D01*
X111222000Y-65350000D01*
X111216000Y-65040000D01*
X111213000Y-64644000D01*
X111210000Y-64147000D01*
X111208000Y-63535000D01*
X111207000Y-62793000D01*
X111205000Y-61905000D01*
X111199000Y-58160000D01*
X112799000Y-58160000D01*
X112805000Y-61965000D01*
G37*
G36*
X171380000Y-60380000D02*
G01*
X172810000Y-62599000D01*
X173165000Y-62600000D01*
X173520000Y-62600000D01*
X173520000Y-58160000D01*
X175120000Y-58160000D01*
X175120000Y-64755000D01*
X175119000Y-65585000D01*
X175118000Y-66348000D01*
X175116000Y-67030000D01*
X175115000Y-67618000D01*
X175113000Y-68099000D01*
X175111000Y-68460000D01*
X175109000Y-68687000D01*
X175106000Y-68767000D01*
X175073000Y-68770000D01*
X174910000Y-68774000D01*
X174645000Y-68776000D01*
X174311000Y-68775000D01*
X173530000Y-68770000D01*
X173520000Y-64040000D01*
X173165000Y-64040000D01*
X172810000Y-64041000D01*
X171220000Y-66383000D01*
X170886000Y-66875000D01*
X170542000Y-67380000D01*
X170237000Y-67829000D01*
X169980000Y-68205000D01*
X169782000Y-68495000D01*
X169653000Y-68682000D01*
X169604000Y-68753000D01*
X169600000Y-68755000D01*
X169496000Y-68766000D01*
X169279000Y-68775000D01*
X168989000Y-68780000D01*
X168665000Y-68782000D01*
X168345000Y-68781000D01*
X168068000Y-68777000D01*
X167873000Y-68769000D01*
X167800000Y-68757000D01*
X167806000Y-68746000D01*
X167879000Y-68630000D01*
X168027000Y-68400000D01*
X168240000Y-68069000D01*
X168510000Y-67653000D01*
X168827000Y-67165000D01*
X169181000Y-66620000D01*
X169565000Y-66032000D01*
X169584000Y-66004000D01*
X170044000Y-65298000D01*
X170423000Y-64716000D01*
X170726000Y-64248000D01*
X170960000Y-63884000D01*
X171131000Y-63613000D01*
X171246000Y-63428000D01*
X171310000Y-63316000D01*
X171330000Y-63270000D01*
X171326000Y-63258000D01*
X171284000Y-63176000D01*
X171190000Y-63015000D01*
X171038000Y-62765000D01*
X170822000Y-62417000D01*
X170536000Y-61962000D01*
X170176000Y-61391000D01*
X169735000Y-60694000D01*
X169702000Y-60642000D01*
X169344000Y-60077000D01*
X169015000Y-59558000D01*
X168725000Y-59099000D01*
X168483000Y-58716000D01*
X168299000Y-58423000D01*
X168181000Y-58236000D01*
X168140000Y-58169000D01*
X168202000Y-58166000D01*
X168394000Y-58163000D01*
X168686000Y-58161000D01*
X169045000Y-58160000D01*
X169950000Y-58160000D01*
X171380000Y-60380000D01*
G37*
G36*
X150640000Y-65763000D02*
G01*
X150694000Y-65756000D01*
X150706000Y-65751000D01*
X150728000Y-65727000D01*
X150763000Y-65673000D01*
X150817000Y-65577000D01*
X150896000Y-65428000D01*
X151006000Y-65216000D01*
X151152000Y-64928000D01*
X151341000Y-64553000D01*
X151577000Y-64080000D01*
X151867000Y-63498000D01*
X152216000Y-62795000D01*
X152631000Y-61960000D01*
X154514000Y-58170000D01*
X156120000Y-58160000D01*
X156120000Y-68781000D01*
X155385000Y-68775000D01*
X154650000Y-68770000D01*
X154640000Y-61200000D01*
X154583000Y-61200000D01*
X154568000Y-61207000D01*
X154546000Y-61231000D01*
X154511000Y-61286000D01*
X154456000Y-61381000D01*
X154378000Y-61529000D01*
X154268000Y-61741000D01*
X154123000Y-62027000D01*
X153935000Y-62401000D01*
X153699000Y-62872000D01*
X153409000Y-63452000D01*
X153060000Y-64153000D01*
X152645000Y-64985000D01*
X150760000Y-68770000D01*
X149160000Y-68780000D01*
X149160000Y-58160000D01*
X150640000Y-58160000D01*
X150640000Y-65763000D01*
G37*
G36*
X137480000Y-59600000D02*
G01*
X134460000Y-59600000D01*
X134460000Y-64840000D01*
X134459000Y-65642000D01*
X134458000Y-66383000D01*
X134457000Y-67050000D01*
X134455000Y-67628000D01*
X134453000Y-68103000D01*
X134451000Y-68461000D01*
X134449000Y-68687000D01*
X134446000Y-68767000D01*
X134413000Y-68770000D01*
X134250000Y-68774000D01*
X133985000Y-68776000D01*
X133651000Y-68775000D01*
X132870000Y-68770000D01*
X132860000Y-59600000D01*
X129840000Y-59600000D01*
X129840000Y-58160000D01*
X137480000Y-58160000D01*
X137480000Y-59600000D01*
G37*
G36*
X126090000Y-68770000D02*
G01*
X126080000Y-64440000D01*
X125229000Y-64445000D01*
X124377000Y-64450000D01*
X123158000Y-66589000D01*
X123023000Y-66825000D01*
X122730000Y-67338000D01*
X122468000Y-67797000D01*
X122246000Y-68185000D01*
X122073000Y-68485000D01*
X121960000Y-68681000D01*
X121917000Y-68754000D01*
X121911000Y-68758000D01*
X121849000Y-68769000D01*
X121703000Y-68775000D01*
X121446000Y-68779000D01*
X121055000Y-68780000D01*
X120939000Y-68780000D01*
X120603000Y-68779000D01*
X120392000Y-68777000D01*
X120277000Y-68771000D01*
X120231000Y-68761000D01*
X120225000Y-68745000D01*
X120242000Y-68712000D01*
X120328000Y-68557000D01*
X120479000Y-68290000D01*
X120684000Y-67928000D01*
X120935000Y-67487000D01*
X121222000Y-66985000D01*
X121535000Y-66437000D01*
X122836000Y-64164000D01*
X122663000Y-64100000D01*
X122422000Y-64001000D01*
X121815000Y-63649000D01*
X121327000Y-63197000D01*
X120965000Y-62650000D01*
X120964000Y-62647000D01*
X120740000Y-62032000D01*
X120647000Y-61370000D01*
X120658162Y-61156000D01*
X122257000Y-61156000D01*
X122291000Y-61700000D01*
X122464000Y-62170000D01*
X122765000Y-62554000D01*
X123185000Y-62839000D01*
X123715000Y-63014000D01*
X123794000Y-63025000D01*
X123941000Y-63036000D01*
X124169000Y-63043000D01*
X124505000Y-63049000D01*
X124975000Y-63054000D01*
X126080000Y-63064000D01*
X126080000Y-59540000D01*
X125009000Y-59540000D01*
X124642000Y-59541000D01*
X124231000Y-59545000D01*
X123942000Y-59552000D01*
X123794000Y-59562000D01*
X123516000Y-59617000D01*
X123120000Y-59765000D01*
X123009000Y-59822000D01*
X122874000Y-59913000D01*
X122720000Y-60059000D01*
X122530000Y-60283000D01*
X122347000Y-60648000D01*
X122261000Y-61102000D01*
X122257000Y-61156000D01*
X120658162Y-61156000D01*
X120682000Y-60699000D01*
X120844000Y-60057000D01*
X121130000Y-59480000D01*
X121178000Y-59410000D01*
X121602000Y-58942000D01*
X122141000Y-58576000D01*
X122778000Y-58319000D01*
X123497000Y-58181000D01*
X123504000Y-58180000D01*
X123672000Y-58173000D01*
X123985000Y-58168000D01*
X124432000Y-58164000D01*
X124998000Y-58161000D01*
X125672000Y-58160000D01*
X127640000Y-58160000D01*
X127640000Y-68780000D01*
X126090000Y-68770000D01*
G37*
G36*
X104920000Y-60380000D02*
G01*
X106350000Y-62599000D01*
X106705000Y-62600000D01*
X107060000Y-62600000D01*
X107060000Y-58160000D01*
X108660000Y-58160000D01*
X108660000Y-64755000D01*
X108659000Y-65585000D01*
X108658000Y-66348000D01*
X108656000Y-67030000D01*
X108655000Y-67618000D01*
X108653000Y-68099000D01*
X108651000Y-68460000D01*
X108649000Y-68687000D01*
X108646000Y-68767000D01*
X108613000Y-68770000D01*
X108450000Y-68774000D01*
X108185000Y-68776000D01*
X107851000Y-68775000D01*
X107070000Y-68770000D01*
X107060000Y-64040000D01*
X106705000Y-64040000D01*
X106350000Y-64041000D01*
X104760000Y-66383000D01*
X104426000Y-66874000D01*
X104083000Y-67380000D01*
X103777000Y-67828000D01*
X103520000Y-68205000D01*
X103322000Y-68495000D01*
X103193000Y-68682000D01*
X103144000Y-68753000D01*
X103127000Y-68760000D01*
X103052000Y-68770000D01*
X102894000Y-68776000D01*
X102628000Y-68779000D01*
X102229000Y-68780000D01*
X101894000Y-68779000D01*
X101577000Y-68776000D01*
X101397000Y-68769000D01*
X101340000Y-68758000D01*
X101346000Y-68747000D01*
X101419000Y-68631000D01*
X101567000Y-68400000D01*
X101780000Y-68070000D01*
X102050000Y-67654000D01*
X102367000Y-67166000D01*
X102721000Y-66621000D01*
X103105000Y-66033000D01*
X103567000Y-65325000D01*
X103950000Y-64736000D01*
X104257000Y-64263000D01*
X104494000Y-63893000D01*
X104668000Y-63619000D01*
X104784000Y-63430000D01*
X104849000Y-63317000D01*
X104870000Y-63270000D01*
X104866000Y-63256000D01*
X104822000Y-63173000D01*
X104727000Y-63010000D01*
X104575000Y-62760000D01*
X104359000Y-62413000D01*
X104075000Y-61959000D01*
X103715000Y-61389000D01*
X103275000Y-60693000D01*
X103242000Y-60641000D01*
X102884000Y-60076000D01*
X102555000Y-59557000D01*
X102265000Y-59098000D01*
X102023000Y-58715000D01*
X101839000Y-58423000D01*
X101721000Y-58235000D01*
X101680000Y-58168000D01*
X101742000Y-58165000D01*
X101934000Y-58163000D01*
X102226000Y-58161000D01*
X102585000Y-58160000D01*
X103490000Y-58160000D01*
X104920000Y-60380000D01*
G37*
G36*
X99500000Y-59600000D02*
G01*
X96480000Y-59600000D01*
X96480000Y-64840000D01*
X96479000Y-65642000D01*
X96478000Y-66383000D01*
X96477000Y-67050000D01*
X96475000Y-67628000D01*
X96473000Y-68103000D01*
X96471000Y-68461000D01*
X96469000Y-68687000D01*
X96466000Y-68767000D01*
X96433000Y-68770000D01*
X96270000Y-68774000D01*
X96005000Y-68776000D01*
X95671000Y-68775000D01*
X94890000Y-68770000D01*
X94880000Y-59600000D01*
X91860000Y-59600000D01*
X91860000Y-58160000D01*
X99500000Y-58160000D01*
X99500000Y-59600000D01*
G37*
%TD*%
D10*
%TO.C,U2202*%
X219720000Y-36840000D03*
D11*
X219720000Y-39380000D03*
X219720000Y-41920000D03*
X219720000Y-44460000D03*
X227340000Y-44460000D03*
X227340000Y-41920000D03*
X227340000Y-39380000D03*
X227340000Y-36840000D03*
%TD*%
D12*
%TO.C,H501*%
X104050800Y-170954000D03*
D13*
X104050800Y-170954000D03*
%TD*%
%TO.C,H2905*%
X272020000Y-20961000D03*
D12*
X272020000Y-20961000D03*
%TD*%
D14*
%TO.C,RV2301*%
X257360000Y-61981000D03*
X248560000Y-61981000D03*
D15*
X255460000Y-68981000D03*
D16*
X252960000Y-68981000D03*
X250460000Y-68981000D03*
%TD*%
D15*
%TO.C,D408*%
X152995000Y-132810000D03*
D16*
X155535000Y-132810000D03*
%TD*%
D13*
%TO.C,H2903*%
X116180000Y-6001000D03*
D12*
X116180000Y-6001000D03*
%TD*%
D13*
%TO.C,H1701*%
X72825000Y-132775000D03*
D12*
X72825000Y-132775000D03*
%TD*%
%TO.C,H803*%
X31320000Y-86040000D03*
D13*
X31320000Y-86040000D03*
%TD*%
%TO.C,H1001*%
X252960000Y-102081000D03*
D12*
X252960000Y-102081000D03*
%TD*%
%TO.C,H1105*%
X31281000Y-197866000D03*
D13*
X31281000Y-197866000D03*
%TD*%
D15*
%TO.C,D2402*%
X185430000Y-167666000D03*
D16*
X185430000Y-170206000D03*
%TD*%
D14*
%TO.C,RV804*%
X9710000Y-103920000D03*
X18510000Y-103920000D03*
D15*
X16610000Y-110920000D03*
D16*
X14110000Y-110920000D03*
X11610000Y-110920000D03*
%TD*%
D15*
%TO.C,D305*%
X111413600Y-82668000D03*
D16*
X113953600Y-82668000D03*
%TD*%
D15*
%TO.C,D406*%
X152995000Y-126810000D03*
D16*
X155535000Y-126810000D03*
%TD*%
D14*
%TO.C,RV301*%
X99601800Y-102661800D03*
X108401800Y-102661800D03*
D15*
X106501800Y-109661800D03*
D16*
X104001800Y-109661800D03*
X101501800Y-109661800D03*
%TD*%
D12*
%TO.C,H1902*%
X301440000Y-67921000D03*
D13*
X301440000Y-67921000D03*
%TD*%
D14*
%TO.C,RV401*%
X108425400Y-146813800D03*
X99625400Y-146813800D03*
D15*
X106525400Y-153813800D03*
D16*
X104025400Y-153813800D03*
X101525400Y-153813800D03*
%TD*%
D13*
%TO.C,H1306*%
X342985000Y-91905000D03*
D12*
X342985000Y-91905000D03*
%TD*%
%TO.C,H2201*%
X252960000Y-77981000D03*
D13*
X252960000Y-77981000D03*
%TD*%
D10*
%TO.C,SW2701*%
X134825000Y-45727500D03*
D11*
X132285000Y-45727500D03*
X132285000Y-38107500D03*
X134825000Y-38107500D03*
%TD*%
D12*
%TO.C,H2407*%
X211400000Y-196941000D03*
D13*
X211400000Y-196941000D03*
%TD*%
D14*
%TO.C,RV1602*%
X51115000Y-146955000D03*
X59915000Y-146955000D03*
D15*
X58015000Y-153955000D03*
D16*
X55515000Y-153955000D03*
X53015000Y-153955000D03*
%TD*%
D13*
%TO.C,H2001*%
X342991000Y-39962000D03*
D12*
X342991000Y-39962000D03*
%TD*%
%TO.C,H504*%
X162930000Y-176940000D03*
D13*
X162930000Y-176940000D03*
%TD*%
D14*
%TO.C,RV803*%
X26930000Y-103910000D03*
X35730000Y-103910000D03*
D15*
X33830000Y-110910000D03*
D16*
X31330000Y-110910000D03*
X28830000Y-110910000D03*
%TD*%
D14*
%TO.C,RV504*%
X158510000Y-196940000D03*
X167310000Y-196940000D03*
D15*
X165410000Y-203940000D03*
D16*
X162910000Y-203940000D03*
X160410000Y-203940000D03*
%TD*%
D12*
%TO.C,H1103*%
X55511000Y-185961000D03*
D13*
X55511000Y-185961000D03*
%TD*%
D15*
%TO.C,D508*%
X152995000Y-176940000D03*
D16*
X155535000Y-176940000D03*
%TD*%
D12*
%TO.C,H1203*%
X72826000Y-39961000D03*
D13*
X72826000Y-39961000D03*
%TD*%
D12*
%TO.C,H2404*%
X252960000Y-168941000D03*
D13*
X252960000Y-168941000D03*
%TD*%
D12*
%TO.C,H1002*%
X252960000Y-116071000D03*
D13*
X252960000Y-116071000D03*
%TD*%
D15*
%TO.C,D308*%
X152971400Y-88658000D03*
D16*
X155511400Y-88658000D03*
%TD*%
D14*
%TO.C,RV801*%
X77280000Y-103920000D03*
X68480000Y-103920000D03*
D15*
X75380000Y-110920000D03*
D16*
X72880000Y-110920000D03*
X70380000Y-110920000D03*
%TD*%
D14*
%TO.C,RV1603*%
X35674000Y-139750000D03*
X26874000Y-139750000D03*
D15*
X33774000Y-146750000D03*
D16*
X31274000Y-146750000D03*
X28774000Y-146750000D03*
%TD*%
D13*
%TO.C,H304*%
X162906400Y-88658000D03*
D12*
X162906400Y-88658000D03*
%TD*%
D13*
%TO.C,H1101*%
X13980000Y-185921000D03*
D12*
X13980000Y-185921000D03*
%TD*%
D13*
%TO.C,H1702*%
X55515000Y-132775000D03*
D12*
X55515000Y-132775000D03*
%TD*%
D13*
%TO.C,H2603*%
X325685000Y-165903000D03*
D12*
X325685000Y-165903000D03*
%TD*%
D13*
%TO.C,H2401*%
X194080000Y-154941000D03*
D12*
X194080000Y-154941000D03*
%TD*%
D14*
%TO.C,RV304*%
X158486400Y-108658000D03*
X167286400Y-108658000D03*
D15*
X165386400Y-115658000D03*
D16*
X162886400Y-115658000D03*
X160386400Y-115658000D03*
%TD*%
D13*
%TO.C,H2602*%
X301440000Y-165903000D03*
D12*
X301440000Y-165903000D03*
%TD*%
D17*
%TO.C,H103*%
X6140000Y-7000000D03*
D18*
X6140000Y-7000000D03*
%TD*%
D15*
%TO.C,D505*%
X111437200Y-170950000D03*
D16*
X113977200Y-170950000D03*
%TD*%
D13*
%TO.C,H1201*%
X13980000Y-39961000D03*
D12*
X13980000Y-39961000D03*
%TD*%
%TO.C,H2601*%
X284129000Y-165903000D03*
D13*
X284129000Y-165903000D03*
%TD*%
D14*
%TO.C,RV302*%
X149976400Y-102658000D03*
X141176400Y-102658000D03*
D15*
X148076400Y-109658000D03*
D16*
X145576400Y-109658000D03*
X143076400Y-109658000D03*
%TD*%
D13*
%TO.C,H1202*%
X55511000Y-39961000D03*
D12*
X55511000Y-39961000D03*
%TD*%
D13*
%TO.C,H2412*%
X235650000Y-182941000D03*
D12*
X235650000Y-182941000D03*
%TD*%
%TO.C,H2912*%
X240840000Y-6001000D03*
D13*
X240840000Y-6001000D03*
%TD*%
%TO.C,H2906*%
X116180000Y-20961000D03*
D12*
X116180000Y-20961000D03*
%TD*%
%TO.C,H2908*%
X313520000Y-20961000D03*
D13*
X313520000Y-20961000D03*
%TD*%
D12*
%TO.C,H2403*%
X211400000Y-168941000D03*
D13*
X211400000Y-168941000D03*
%TD*%
D14*
%TO.C,RV303*%
X116950000Y-108650000D03*
X125750000Y-108650000D03*
D15*
X123850000Y-115650000D03*
D16*
X121350000Y-115650000D03*
X118850000Y-115650000D03*
%TD*%
D14*
%TO.C,RV2701*%
X125750000Y-39970000D03*
X116950000Y-39970000D03*
D15*
X123850000Y-46970000D03*
D16*
X121350000Y-46970000D03*
X118850000Y-46970000D03*
%TD*%
D13*
%TO.C,H702*%
X55580000Y-69940000D03*
D12*
X55580000Y-69940000D03*
%TD*%
%TO.C,H2301*%
X252960000Y-39961000D03*
D13*
X252960000Y-39961000D03*
%TD*%
D14*
%TO.C,RV404*%
X167310000Y-152810000D03*
X158510000Y-152810000D03*
D15*
X165410000Y-159810000D03*
D16*
X162910000Y-159810000D03*
X160410000Y-159810000D03*
%TD*%
D19*
%TO.C,J2901*%
X32035000Y-9735000D03*
X15805000Y-9735000D03*
X32035000Y-3385000D03*
X15805000Y-3385000D03*
X32035000Y-16085000D03*
X15805000Y-16085000D03*
%TD*%
D15*
%TO.C,D2403*%
X261610000Y-181666000D03*
D16*
X261610000Y-184206000D03*
%TD*%
D12*
%TO.C,H503*%
X145620000Y-170930000D03*
D13*
X145620000Y-170930000D03*
%TD*%
D14*
%TO.C,RV802*%
X59975000Y-103925000D03*
X51175000Y-103925000D03*
D15*
X58075000Y-110925000D03*
D16*
X55575000Y-110925000D03*
X53075000Y-110925000D03*
%TD*%
D12*
%TO.C,H1303*%
X284129000Y-103920000D03*
D13*
X284129000Y-103920000D03*
%TD*%
D12*
%TO.C,H602*%
X14120000Y-69980000D03*
D13*
X14120000Y-69980000D03*
%TD*%
D12*
%TO.C,H2901*%
X43420000Y-20961000D03*
D13*
X43420000Y-20961000D03*
%TD*%
D19*
%TO.C,J2903*%
X299508000Y-9735000D03*
X283278000Y-9735000D03*
X299508000Y-3385000D03*
X283278000Y-3385000D03*
X299508000Y-16085000D03*
X283278000Y-16085000D03*
%TD*%
D14*
%TO.C,RV2303*%
X215800000Y-61981000D03*
X207000000Y-61981000D03*
D15*
X213900000Y-68981000D03*
D16*
X211400000Y-68981000D03*
X208900000Y-68981000D03*
%TD*%
D12*
%TO.C,H2402*%
X252960000Y-154941000D03*
D13*
X252960000Y-154941000D03*
%TD*%
%TO.C,H1302*%
X325685000Y-91905000D03*
D12*
X325685000Y-91905000D03*
%TD*%
D19*
%TO.C,J2904*%
X341026000Y-9735000D03*
X324796000Y-9735000D03*
X341026000Y-3385000D03*
X324796000Y-3385000D03*
X341026000Y-16085000D03*
X324796000Y-16085000D03*
%TD*%
D12*
%TO.C,H801*%
X72900000Y-86000000D03*
D13*
X72900000Y-86000000D03*
%TD*%
D12*
%TO.C,H301*%
X104027200Y-82672000D03*
D13*
X104027200Y-82672000D03*
%TD*%
%TO.C,H1301*%
X284129000Y-91901000D03*
D12*
X284129000Y-91901000D03*
%TD*%
D13*
%TO.C,H1007*%
X211400000Y-102081000D03*
D12*
X211400000Y-102081000D03*
%TD*%
D13*
%TO.C,H401*%
X104050800Y-126824000D03*
D12*
X104050800Y-126824000D03*
%TD*%
D17*
%TO.C,H104*%
X350750000Y-7000000D03*
D18*
X350750000Y-7000000D03*
%TD*%
D12*
%TO.C,H1008*%
X211328000Y-116078000D03*
D13*
X211328000Y-116078000D03*
%TD*%
%TO.C,H2911*%
X150800000Y-6001000D03*
D12*
X150800000Y-6001000D03*
%TD*%
D14*
%TO.C,RV502*%
X150000000Y-190940000D03*
X141200000Y-190940000D03*
D15*
X148100000Y-197940000D03*
D16*
X145600000Y-197940000D03*
X143100000Y-197940000D03*
%TD*%
D19*
%TO.C,J2906*%
X231625000Y-9735000D03*
X215395000Y-9735000D03*
X231625000Y-3385000D03*
X215395000Y-3385000D03*
X231625000Y-16085000D03*
X215395000Y-16085000D03*
%TD*%
D13*
%TO.C,H2002*%
X325681000Y-39962000D03*
D12*
X325681000Y-39962000D03*
%TD*%
D14*
%TO.C,RV402*%
X150000000Y-146810000D03*
X141200000Y-146810000D03*
D15*
X148100000Y-153810000D03*
D16*
X145600000Y-153810000D03*
X143100000Y-153810000D03*
%TD*%
D12*
%TO.C,H1006*%
X235650000Y-130041000D03*
D13*
X235650000Y-130041000D03*
%TD*%
D12*
%TO.C,H1305*%
X301440000Y-91901000D03*
D13*
X301440000Y-91901000D03*
%TD*%
D10*
%TO.C,SW2001*%
X326960000Y-73707500D03*
D11*
X324420000Y-73707500D03*
X324420000Y-66087500D03*
X326960000Y-66087500D03*
%TD*%
D13*
%TO.C,H2303*%
X211400000Y-39961000D03*
D12*
X211400000Y-39961000D03*
%TD*%
D15*
%TO.C,D405*%
X111437200Y-126820000D03*
D16*
X113977200Y-126820000D03*
%TD*%
D13*
%TO.C,H1601*%
X72819000Y-160734000D03*
D12*
X72819000Y-160734000D03*
%TD*%
%TO.C,H1304*%
X325685000Y-103925000D03*
D13*
X325685000Y-103925000D03*
%TD*%
D12*
%TO.C,H1802*%
X13963000Y-146714000D03*
D13*
X13963000Y-146714000D03*
%TD*%
D12*
%TO.C,H701*%
X31340000Y-69980000D03*
D13*
X31340000Y-69980000D03*
%TD*%
%TO.C,H2702*%
X162910000Y-39960000D03*
D12*
X162910000Y-39960000D03*
%TD*%
D13*
%TO.C,H2405*%
X211400000Y-182941000D03*
D12*
X211400000Y-182941000D03*
%TD*%
D14*
%TO.C,RV1903*%
X297040000Y-46937000D03*
X305840000Y-46937000D03*
D15*
X303940000Y-53937000D03*
D16*
X301440000Y-53937000D03*
X298940000Y-53937000D03*
%TD*%
D13*
%TO.C,H2902*%
X85060000Y-20961000D03*
D12*
X85060000Y-20961000D03*
%TD*%
D19*
%TO.C,J2902*%
X73669000Y-9735000D03*
X57439000Y-9735000D03*
X73669000Y-3385000D03*
X57439000Y-3385000D03*
X73669000Y-16085000D03*
X57439000Y-16085000D03*
%TD*%
D12*
%TO.C,H2409*%
X194080000Y-168941000D03*
D13*
X194080000Y-168941000D03*
%TD*%
D14*
%TO.C,RV503*%
X116973600Y-196932000D03*
X125773600Y-196932000D03*
D15*
X123873600Y-203932000D03*
D16*
X121373600Y-203932000D03*
X118873600Y-203932000D03*
%TD*%
D13*
%TO.C,H502*%
X121373600Y-176948400D03*
D12*
X121373600Y-176948400D03*
%TD*%
%TO.C,H2502*%
X325685000Y-127903000D03*
D13*
X325685000Y-127903000D03*
%TD*%
D12*
%TO.C,H404*%
X162930000Y-132810000D03*
D13*
X162930000Y-132810000D03*
%TD*%
%TO.C,H2504*%
X325685000Y-141903000D03*
D12*
X325685000Y-141903000D03*
%TD*%
D13*
%TO.C,H1602*%
X31274000Y-160734000D03*
D12*
X31274000Y-160734000D03*
%TD*%
D13*
%TO.C,H1104*%
X72819000Y-185961000D03*
D12*
X72819000Y-185961000D03*
%TD*%
D14*
%TO.C,RV1902*%
X330081000Y-54142000D03*
X321281000Y-54142000D03*
D15*
X328181000Y-61142000D03*
D16*
X325681000Y-61142000D03*
X323181000Y-61142000D03*
%TD*%
D12*
%TO.C,H1106*%
X72898000Y-197866000D03*
D13*
X72898000Y-197866000D03*
%TD*%
%TO.C,H303*%
X145596400Y-82648000D03*
D12*
X145596400Y-82648000D03*
%TD*%
%TO.C,H2503*%
X284129000Y-141903000D03*
D13*
X284129000Y-141903000D03*
%TD*%
%TO.C,H601*%
X72900000Y-69940000D03*
D12*
X72900000Y-69940000D03*
%TD*%
D18*
%TO.C,H101*%
X6140000Y-202990000D03*
D17*
X6140000Y-202990000D03*
%TD*%
D13*
%TO.C,H2302*%
X235650000Y-39961000D03*
D12*
X235650000Y-39961000D03*
%TD*%
D14*
%TO.C,RV2502*%
X338585000Y-134905000D03*
X347385000Y-134905000D03*
D15*
X345485000Y-141905000D03*
D16*
X342985000Y-141905000D03*
X340485000Y-141905000D03*
%TD*%
D14*
%TO.C,RV1901*%
X338591000Y-54142000D03*
X347391000Y-54142000D03*
D15*
X345491000Y-61142000D03*
D16*
X342991000Y-61142000D03*
X340491000Y-61142000D03*
%TD*%
D14*
%TO.C,RV2304*%
X189680000Y-61981000D03*
X198480000Y-61981000D03*
D15*
X196580000Y-68981000D03*
D16*
X194080000Y-68981000D03*
X191580000Y-68981000D03*
%TD*%
D15*
%TO.C,D307*%
X111401400Y-88658000D03*
D16*
X113941400Y-88658000D03*
%TD*%
D13*
%TO.C,H302*%
X121350000Y-88666400D03*
D12*
X121350000Y-88666400D03*
%TD*%
D13*
%TO.C,H2408*%
X252960000Y-196941000D03*
D12*
X252960000Y-196941000D03*
%TD*%
%TO.C,H1901*%
X342985000Y-67921000D03*
D13*
X342985000Y-67921000D03*
%TD*%
D10*
%TO.C,SW1701*%
X56794000Y-166520500D03*
D11*
X54254000Y-166520500D03*
X54254000Y-158900500D03*
X56794000Y-158900500D03*
%TD*%
D14*
%TO.C,RV1201*%
X35679000Y-39961000D03*
X26879000Y-39961000D03*
D15*
X33779000Y-46961000D03*
D16*
X31279000Y-46961000D03*
X28779000Y-46961000D03*
%TD*%
D15*
%TO.C,D2404*%
X261610000Y-167666000D03*
D16*
X261610000Y-170206000D03*
%TD*%
D12*
%TO.C,H1102*%
X31279000Y-185959000D03*
D13*
X31279000Y-185959000D03*
%TD*%
D12*
%TO.C,H1005*%
X252960000Y-130041000D03*
D13*
X252960000Y-130041000D03*
%TD*%
D10*
%TO.C,SW2301*%
X232425000Y-81748500D03*
D11*
X229885000Y-81748500D03*
X227345000Y-81748500D03*
X224805000Y-81748500D03*
X222265000Y-81748500D03*
X219725000Y-81748500D03*
X217185000Y-81748500D03*
X214645000Y-81748500D03*
X214645000Y-74128500D03*
X217185000Y-74128500D03*
X219725000Y-74128500D03*
X222265000Y-74128500D03*
X224805000Y-74128500D03*
X227345000Y-74128500D03*
X229885000Y-74128500D03*
X232425000Y-74128500D03*
%TD*%
D14*
%TO.C,RV2501*%
X297024000Y-134904000D03*
X305824000Y-134904000D03*
D15*
X303924000Y-141904000D03*
D16*
X301424000Y-141904000D03*
X298924000Y-141904000D03*
%TD*%
D13*
%TO.C,H2904*%
X206220000Y-6001000D03*
D12*
X206220000Y-6001000D03*
%TD*%
D20*
%TO.C,J2801*%
X178495000Y-8175000D03*
D21*
X178495000Y-1875000D03*
D22*
X183295000Y-5275000D03*
%TD*%
D13*
%TO.C,H2910*%
X240840000Y-20961000D03*
D12*
X240840000Y-20961000D03*
%TD*%
%TO.C,H403*%
X145620000Y-126800000D03*
D13*
X145620000Y-126800000D03*
%TD*%
%TO.C,H802*%
X55560000Y-86000000D03*
D12*
X55560000Y-86000000D03*
%TD*%
%TO.C,H2305*%
X194080000Y-77981000D03*
D13*
X194080000Y-77981000D03*
%TD*%
%TO.C,H2604*%
X342985000Y-165903000D03*
D12*
X342985000Y-165903000D03*
%TD*%
D13*
%TO.C,H1011*%
X211400000Y-130041000D03*
D12*
X211400000Y-130041000D03*
%TD*%
D14*
%TO.C,RV1601*%
X77225000Y-146955000D03*
X68425000Y-146955000D03*
D15*
X75325000Y-153955000D03*
D16*
X72825000Y-153955000D03*
X70325000Y-153955000D03*
%TD*%
D13*
%TO.C,H2101*%
X284129000Y-39961000D03*
D12*
X284129000Y-39961000D03*
%TD*%
D15*
%TO.C,D506*%
X152995000Y-170940000D03*
D16*
X155535000Y-170940000D03*
%TD*%
D10*
%TO.C,SW1801*%
X15238000Y-166521000D03*
D11*
X12698000Y-166521000D03*
X12698000Y-158901000D03*
X15238000Y-158901000D03*
%TD*%
D12*
%TO.C,H2406*%
X252960000Y-182941000D03*
D13*
X252960000Y-182941000D03*
%TD*%
D15*
%TO.C,D306*%
X152971400Y-82658000D03*
D16*
X155511400Y-82658000D03*
%TD*%
D12*
%TO.C,H2501*%
X284129000Y-127903000D03*
D13*
X284129000Y-127903000D03*
%TD*%
%TO.C,H2411*%
X194080000Y-182941000D03*
D12*
X194080000Y-182941000D03*
%TD*%
%TO.C,H1801*%
X13963000Y-132774000D03*
D13*
X13963000Y-132774000D03*
%TD*%
D14*
%TO.C,RV403*%
X116973600Y-152802000D03*
X125773600Y-152802000D03*
D15*
X123873600Y-159802000D03*
D16*
X121373600Y-159802000D03*
X118873600Y-159802000D03*
%TD*%
D12*
%TO.C,H2414*%
X235650000Y-196941000D03*
D13*
X235650000Y-196941000D03*
%TD*%
D10*
%TO.C,SW2101*%
X285404000Y-73708000D03*
D11*
X282864000Y-73708000D03*
X282864000Y-66088000D03*
X285404000Y-66088000D03*
%TD*%
D14*
%TO.C,RV501*%
X99625400Y-190943800D03*
X108425400Y-190943800D03*
D15*
X106525400Y-197943800D03*
D16*
X104025400Y-197943800D03*
X101525400Y-197943800D03*
%TD*%
D18*
%TO.C,H102*%
X350750000Y-202990000D03*
D17*
X350750000Y-202990000D03*
%TD*%
D13*
%TO.C,H2909*%
X150800000Y-20961000D03*
D12*
X150800000Y-20961000D03*
%TD*%
D13*
%TO.C,H2907*%
X206220000Y-20961000D03*
D12*
X206220000Y-20961000D03*
%TD*%
D13*
%TO.C,H1010*%
X194056000Y-116078000D03*
D12*
X194056000Y-116078000D03*
%TD*%
D14*
%TO.C,RV2702*%
X141200000Y-39960000D03*
X150000000Y-39960000D03*
D15*
X148100000Y-46960000D03*
D16*
X145600000Y-46960000D03*
X143100000Y-46960000D03*
%TD*%
D19*
%TO.C,J2905*%
X141589000Y-9735000D03*
X125359000Y-9735000D03*
X141589000Y-3385000D03*
X125359000Y-3385000D03*
X141589000Y-16085000D03*
X125359000Y-16085000D03*
%TD*%
D13*
%TO.C,H2410*%
X235650000Y-168941000D03*
D12*
X235650000Y-168941000D03*
%TD*%
D13*
%TO.C,H402*%
X121373600Y-132818400D03*
D12*
X121373600Y-132818400D03*
%TD*%
D15*
%TO.C,D507*%
X111425000Y-176940000D03*
D16*
X113965000Y-176940000D03*
%TD*%
D23*
%TO.C,J2802*%
X182305000Y-21285000D03*
D24*
X182305000Y-23825000D03*
X179765000Y-21285000D03*
X179765000Y-23825000D03*
X177225000Y-21285000D03*
X177225000Y-23825000D03*
X174685000Y-21285000D03*
X174685000Y-23825000D03*
%TD*%
D14*
%TO.C,RV2302*%
X231250000Y-61981000D03*
X240050000Y-61981000D03*
D15*
X238150000Y-68981000D03*
D16*
X235650000Y-68981000D03*
X233150000Y-68981000D03*
%TD*%
D12*
%TO.C,H1004*%
X235650000Y-116071000D03*
D13*
X235650000Y-116071000D03*
%TD*%
D12*
%TO.C,H2102*%
X284129000Y-53901000D03*
D13*
X284129000Y-53901000D03*
%TD*%
%TO.C,H2701*%
X104030000Y-39970000D03*
D12*
X104030000Y-39970000D03*
%TD*%
%TO.C,H804*%
X14130000Y-86000000D03*
D13*
X14130000Y-86000000D03*
%TD*%
D15*
%TO.C,D2401*%
X185434000Y-181666000D03*
D16*
X185434000Y-184206000D03*
%TD*%
D12*
%TO.C,H2304*%
X194080000Y-39961000D03*
D13*
X194080000Y-39961000D03*
%TD*%
%TO.C,H2413*%
X194080000Y-196941000D03*
D12*
X194080000Y-196941000D03*
%TD*%
D15*
%TO.C,D407*%
X111425000Y-132810000D03*
D16*
X113965000Y-132810000D03*
%TD*%
D12*
%TO.C,H1012*%
X194080000Y-130041000D03*
D13*
X194080000Y-130041000D03*
%TD*%
%TO.C,H1003*%
X235650000Y-102081000D03*
D12*
X235650000Y-102081000D03*
%TD*%
D13*
%TO.C,H1009*%
X194080000Y-102081000D03*
D12*
X194080000Y-102081000D03*
%TD*%
M02*
