M48
; DRILL file {KiCad (6.0.9-0)} date 2023 July 01, Saturday 22:34:15
; FORMAT={-:-/ absolute / inch / decimal}
; #@! TF.CreationDate,2023-07-01T22:34:15+02:00
; #@! TF.GenerationSoftware,Kicad,Pcbnew,(6.0.9-0)
; #@! TF.FileFunction,Plated,1,2,PTH
FMAT,2
INCH
; #@! TA.AperFunction,Plated,PTH,ViaDrill
T1C0.0118
; #@! TA.AperFunction,Plated,PTH,ViaDrill
T2C0.0157
; #@! TA.AperFunction,Plated,PTH,ComponentDrill
T3C0.0315
; #@! TA.AperFunction,Plated,PTH,ComponentDrill
T4C0.0354
; #@! TA.AperFunction,Plated,PTH,ComponentDrill
T5C0.0394
; #@! TA.AperFunction,Plated,PTH,ComponentDrill
T6C0.0472
; #@! TA.AperFunction,Plated,PTH,ComponentDrill
T7C0.0551
; #@! TA.AperFunction,Plated,PTH,ComponentDrill
T8C0.0709
; #@! TA.AperFunction,Plated,PTH,ComponentDrill
T9C0.1260
; #@! TA.AperFunction,Plated,PTH,ComponentDrill
T10C0.1693
%
G90
G05
T1
X0.36Y-4.635
X0.36Y-4.695
X0.5035Y-6.1441
X0.5036Y-6.0845
X0.5215Y-4.15
X0.58Y-4.6355
X0.58Y-4.6945
X0.58Y-4.788
X0.585Y-4.15
X0.63Y-3.77
X0.63Y-3.9988
X0.69Y-3.825
X0.78Y-4.44
X0.78Y-4.7545
X0.78Y-7.49
X0.78Y-7.5521
X0.87Y-5.405
X0.87Y-5.5236
X0.945Y-2.8655
X0.945Y-2.9245
X0.9513Y-5.4635
X0.9513Y-5.5236
X0.9522Y-1.7463
X1.035Y-3.81
X1.0358Y-3.9408
X1.0835Y-6.0341
X1.0835Y-6.1541
X1.135Y-3.135
X1.135Y-3.1945
X1.1678Y-2.9572
X1.17Y-3.0236
X1.2063Y-1.3721
X1.2091Y-4.5147
X1.21Y-4.43
X1.2722Y-1.3963
X1.295Y-4.6155
X1.295Y-4.69
X1.3Y-3.6745
X1.315Y-3.9177
X1.315Y-3.9984
X1.3317Y-1.3963
X1.3322Y-1.7568
X1.3722Y-1.3668
X1.38Y-3.7255
X1.38Y-3.785
X1.41Y-2.55
X1.42Y-3.66
X1.42Y-3.7255
X1.42Y-3.7845
X1.43Y-4.425
X1.4306Y-4.3557
X1.48Y-4.43
X1.48Y-4.515
X1.49Y-7.4346
X1.49Y-7.4936
X1.5121Y-2.5512
X1.5144Y-4.7344
X1.52Y-2.71
X1.5244Y-5.5595
X1.5244Y-5.6249
X1.532Y-3.9255
X1.532Y-4.0062
X1.5414Y-4.5146
X1.542Y-4.428
X1.6629Y-6.3641
X1.6641Y-2.9941
X1.6642Y-2.9162
X1.6705Y-3.235
X1.6732Y-3.1307
X1.675Y-4.7005
X1.675Y-4.8245
X1.6791Y-7.6995
X1.6809Y-4.4549
X1.6813Y-4.5455
X1.6855Y-7.5099
X1.7277Y-3.565
X1.7413Y-3.7004
X1.7722Y-7.8613
X1.7735Y-6.3641
X1.7735Y-6.4241
X1.7941Y-1.4982
X1.7948Y-1.3834
X1.82Y-7.51
X1.82Y-7.58
X1.8455Y-3.9274
X1.8469Y-4.4596
X1.865Y-4.675
X1.8741Y-3.8991
X1.875Y-4.025
X1.8779Y-2.866
X1.8779Y-2.9471
X1.88Y-4.1855
X1.88Y-4.3584
X1.895Y-4.5955
X1.895Y-4.76
X1.92Y-7.6005
X1.92Y-7.6595
X1.975Y-4.325
X1.9822Y-1.7451
X1.9822Y-1.8363
X1.9823Y-3.8127
X1.9823Y-3.9595
X2.041Y-4.275
X2.075Y-2.5064
X2.075Y-2.5654
X2.0896Y-3.9401
X2.1272Y-8.1566
X2.13Y-7.8984
X2.15Y-6.9
X2.15Y-7.0436
X2.17Y-4.7
X2.17Y-4.7895
X2.1822Y-1.1063
X2.1822Y-1.1758
X2.1842Y-1.826
X2.1862Y-1.9363
X2.19Y-4.2712
X2.1912Y-4.175
X2.23Y-4.4896
X2.23Y-4.555
X2.24Y-3.825
X2.2411Y-4.0219
X2.2622Y-2.0263
X2.2622Y-2.0963
X2.3Y-7.6605
X2.3Y-7.82
X2.355Y-4.2495
X2.355Y-4.3312
X2.36Y-7.45
X2.36Y-7.5795
X2.3924Y-4.2505
X2.3933Y-4.3095
X2.3991Y-7.949
X2.4Y-7.89
X2.4222Y-1.1263
X2.4227Y-0.7663
X2.4229Y-4.3685
X2.4298Y-4.2505
X2.45Y-7.65
X2.45Y-7.7195
X2.4817Y-0.7663
X2.485Y-3.76
X2.4904Y-3.681
X2.54Y-3.3215
X2.54Y-3.445
X2.6322Y-5.9963
X2.71Y-3.575
X2.71Y-3.9395
X2.77Y-4.525
X2.9222Y-5.9963
X2.995Y-3.2245
X2.9955Y-3.145
X3.4422Y-2.3463
X3.4422Y-2.4363
X3.4822Y-4.4063
X3.4822Y-4.5363
X3.4822Y-8.1063
X3.4822Y-8.2301
X3.51Y-2.14
X3.51Y-2.2
X4.85Y-1.32
X4.85Y-1.3795
X4.8686Y-3.1353
X4.8686Y-3.2343
X4.8695Y-4.8736
X4.8695Y-4.9726
X4.8695Y-6.611
X4.8695Y-6.71
X5.0136Y-3.3153
X5.0136Y-3.3743
X5.0136Y-3.4598
X5.0136Y-3.5203
X5.0145Y-5.0536
X5.0145Y-5.1126
X5.0145Y-5.1981
X5.0145Y-5.2586
X5.0145Y-6.791
X5.0145Y-6.85
X5.0145Y-6.9355
X5.0145Y-6.996
X5.0736Y-4.0705
X5.0736Y-4.1736
X5.0745Y-5.8088
X5.0745Y-5.9118
X5.0745Y-7.5462
X5.0745Y-7.6492
X5.0786Y-3.6294
X5.0786Y-3.7298
X5.0795Y-5.3676
X5.0795Y-5.4681
X5.0795Y-7.105
X5.0795Y-7.2055
X5.2236Y-3.1097
X5.2236Y-3.1848
X5.2245Y-4.848
X5.2245Y-4.9231
X5.2245Y-6.5854
X5.2245Y-6.6605
X5.4036Y-3.4348
X5.4043Y-3.3642
X5.4045Y-5.1731
X5.4045Y-6.9105
X5.4053Y-5.1025
X5.4053Y-6.8399
X5.56Y-4.4305
X5.56Y-4.5334
X5.5609Y-6.1688
X5.5609Y-6.2717
X5.5609Y-7.9062
X5.5609Y-8.0091
X5.5886Y-3.6714
X5.5886Y-3.8098
X5.5895Y-5.4096
X5.5895Y-5.5481
X5.5895Y-7.147
X5.5895Y-7.2855
X5.82Y-1.32
X5.82Y-1.38
X5.8436Y-3.8384
X5.8445Y-5.5767
X5.8445Y-7.3141
X5.8486Y-3.6398
X5.8495Y-5.3781
X5.8495Y-7.1155
X5.9386Y-2.9986
X5.9386Y-3.0793
X5.9395Y-4.7369
X5.9395Y-4.8176
X5.9395Y-6.4743
X5.9395Y-6.555
X6.2636Y-3.0248
X6.2636Y-3.1248
X6.2645Y-4.7631
X6.2645Y-4.8631
X6.2645Y-6.5005
X6.2645Y-6.6005
X6.7Y-1.41
X6.92Y-2.0
X6.96Y-2.05
X7.0334Y-2.05
X7.04Y-2.01
X7.1685Y-2.01
X7.17Y-2.05
X7.28Y-2.01
X7.28Y-2.05
X7.55Y-1.09
X7.5509Y-1.1609
X7.71Y-2.01
X7.71Y-2.0695
X7.83Y-0.9925
X7.83Y-1.17
X7.88Y-7.43
X7.88Y-7.52
X7.92Y-1.0955
X7.9223Y-1.16
X8.0012Y-2.0812
X8.0032Y-1.9905
X8.01Y-2.74
X8.01Y-2.83
X8.05Y-2.74
X8.05Y-2.8234
X8.2472Y-4.8005
X8.2523Y-4.8595
X8.2822Y-5.4713
X8.283Y-5.3754
X8.4Y-2.11
X8.4009Y-2.2595
X8.43Y-1.7505
X8.43Y-1.87
X8.5005Y-4.1291
X8.5009Y-4.2209
X8.5072Y-4.7063
X8.5072Y-4.7653
X8.51Y-7.4334
X8.55Y-1.05
X8.55Y-1.1
X8.55Y-1.15
X8.55Y-7.36
X8.55Y-7.48
X8.5991Y-1.9609
X8.6Y-2.1
X8.63Y-3.7766
X8.63Y-3.8434
X8.6322Y-5.3613
X8.64Y-4.06
X8.64Y-4.16
X8.64Y-4.4334
X8.64Y-4.69
X8.6422Y-5.2463
X8.6422Y-5.3234
X8.65Y-1.05
X8.65Y-1.1
X8.65Y-1.15
X8.65Y-1.94
X8.65Y-2.73
X8.6523Y-2.2234
X8.75Y-2.69
X8.7549Y-4.4513
X8.7666Y-3.8434
X8.7666Y-4.1663
X8.7707Y-3.7304
X8.7766Y-4.5722
X8.7772Y-5.4418
X8.7772Y-5.5013
X8.7802Y-4.8993
X8.7822Y-4.8013
X8.8Y-1.05
X8.8Y-1.1
X8.8Y-1.15
X8.8334Y-4.1663
X8.85Y-2.69
X8.9Y-1.05
X8.9Y-1.1
X8.9Y-1.15
X8.9506Y-2.7294
X8.97Y-5.16
X8.97Y-5.2195
X8.98Y-4.19
X8.98Y-4.2763
X8.98Y-4.45
X8.98Y-4.68
X8.9994Y-5.2906
X9.0Y-1.05
X9.0Y-1.1
X9.0Y-1.15
X9.0009Y-5.0791
X9.0191Y-4.1591
X9.02Y-4.2763
X9.0259Y-2.1824
X9.0259Y-2.2659
X9.0772Y-5.1013
X9.0812Y-5.2613
X9.09Y-3.89
X9.0922Y-3.7963
X9.0923Y-5.0074
X9.093Y-4.6704
X9.1Y-1.05
X9.1Y-1.1
X9.1Y-1.15
X9.2481Y-3.8163
X9.3122Y-3.8163
X9.4001Y-4.9005
X9.48Y-5.0834
X9.48Y-5.1534
X9.5Y-6.898
X9.5122Y-4.6163
X9.5147Y-4.9638
X9.57Y-2.7566
X9.57Y-7.4305
X9.57Y-7.5
X9.5704Y-2.8278
X9.6072Y-4.0663
X9.6072Y-4.1558
X9.61Y-2.73
X9.61Y-2.83
X9.6522Y-4.0705
X9.6522Y-4.1774
X9.6922Y-4.0313
X9.6922Y-4.1774
X9.86Y-1.93
X9.86Y-2.06
X10.05Y-6.898
X10.3Y-1.15
X10.3Y-1.33
X10.5037Y-3.7378
X10.6122Y-3.7363
X10.65Y-4.45
X10.65Y-4.5
X10.65Y-4.55
X10.75Y-4.45
X10.75Y-4.5
X10.75Y-4.55
X10.85Y-4.45
X10.85Y-4.5
X10.85Y-4.55
X10.95Y-4.45
X10.95Y-4.5
X10.95Y-4.55
X11.0022Y-1.0263
X11.0022Y-1.1363
X11.0063Y-3.1763
X11.01Y-3.09
X11.05Y-4.45
X11.05Y-4.5
X11.05Y-4.55
X11.14Y-2.49
X11.14Y-2.4305
X11.15Y-4.45
X11.15Y-4.5
X11.15Y-4.55
X11.5065Y-1.7509
X11.5065Y-1.8695
X11.53Y-5.5846
X11.53Y-5.6436
X11.5877Y-1.8095
X11.5877Y-1.8696
X11.6322Y-3.3563
X11.6322Y-3.4363
X11.72Y-2.38
X11.72Y-2.5
X11.7622Y-3.7863
X11.7622Y-3.8963
X11.99Y-5.6905
X11.99Y-5.75
X12.0199Y-4.4268
X12.0222Y-4.4863
X12.04Y-6.8497
X12.04Y-6.95
X12.0722Y-3.8363
X12.0722Y-4.0163
X12.12Y-6.8497
X12.12Y-7.0095
X12.1609Y-1.9055
X12.1609Y-1.9709
X12.2993Y-2.71
X12.3395Y-6.9188
X12.34Y-6.98
X12.41Y-2.71
X12.41Y-2.77
X12.53Y-6.5605
X12.53Y-6.62
X12.55Y-6.92
X12.55Y-6.9795
X12.55Y-7.0581
X12.7322Y-3.1468
X12.7322Y-3.2063
X12.85Y-6.9105
X12.85Y-6.9695
X13.25Y-5.6388
X13.25Y-5.73
X13.2791Y-2.3463
X13.5522Y-2.3463
X13.6499Y-4.4228
X13.6522Y-4.4823
X13.9527Y-3.7702
X13.9561Y-3.8293
T2
X0.1222Y-2.2863
X0.1222Y-2.3577
X0.135Y-3.275
X0.2022Y-1.4363
X0.225Y-2.655
X0.24Y-7.22
X0.26Y-1.99
X0.275Y-3.245
X0.2813Y-5.3635
X0.2813Y-5.9035
X0.55Y-6.9263
X0.56Y-2.0
X0.72Y-7.9
X0.7407Y-6.1511
X0.8313Y-5.2535
X0.86Y-3.6785
X0.86Y-3.7415
X0.87Y-3.275
X0.895Y-3.93
X0.8968Y-4.1022
X0.91Y-2.655
X0.97Y-8.16
X0.97Y-8.231
X0.9735Y-6.5841
X1.0Y-3.25
X1.0209Y-5.8951
X1.0427Y-3.7623
X1.1Y-8.1385
X1.22Y-6.7
X1.24Y-3.065
X1.28Y-8.13
X1.34Y-7.07
X1.395Y-2.9183
X1.395Y-3.115
X1.4505Y-3.9076
X1.49Y-7.57
X1.51Y-8.1385
X1.5145Y-3.3145
X1.545Y-3.26
X1.55Y-3.814
X1.55Y-7.18
X1.5722Y-0.3363
X1.6035Y-5.6741
X1.6122Y-1.6317
X1.615Y-2.71
X1.68Y-8.231
X1.6815Y-8.117
X1.7431Y-4.505
X1.745Y-4.6065
X1.745Y-4.6985
X1.745Y-4.7615
X1.755Y-3.26
X1.755Y-3.84
X1.77Y-7.61
X1.8022Y-5.1363
X1.8035Y-5.3041
X1.81Y-7.96
X1.845Y-2.64
X1.88Y-7.31
X1.94Y-6.91
X1.9622Y-1.5963
X1.98Y-4.255
X2.0015Y-3.006
X2.0025Y-3.0725
X2.0122Y-0.6863
X2.05Y-6.7946
X2.0515Y-7.09
X2.095Y-3.13
X2.095Y-3.2
X2.15Y-6.839
X2.1622Y-8.0013
X2.1657Y-8.1231
X2.24Y-8.03
X2.26Y-8.1994
X2.2622Y-5.6148
X2.2622Y-5.6777
X2.31Y-3.14
X2.32Y-6.9541
X2.335Y-3.83
X2.4222Y-4.9863
X2.4322Y-5.5563
X2.44Y-8.09
X2.47Y-2.615
X2.47Y-3.265
X2.4772Y-1.4313
X2.48Y-7.18
X2.5122Y-5.2563
X2.52Y-7.5
X2.5765Y-3.76
X2.6Y-3.28
X2.67Y-8.1069
X2.67Y-8.1915
X2.7Y-2.89
X2.875Y-2.46
X2.9135Y-6.6441
X3.12Y-8.19
X3.15Y-3.25
X3.1522Y-1.4363
X3.16Y-2.615
X3.16Y-7.64
X3.1622Y-5.0763
X3.1622Y-6.1663
X3.22Y-7.22
X3.2222Y-0.3663
X3.23Y-8.19
X3.2522Y-5.5963
X3.27Y-3.29
X3.6622Y-0.6863
X3.69Y-1.48
X3.925Y-2.085
X4.1436Y-3.6198
X4.1445Y-5.3581
X4.1445Y-7.0955
X4.2622Y-0.3863
X4.2622Y-0.6663
X4.3785Y-1.86
X4.4886Y-3.8148
X4.4886Y-3.9063
X4.4886Y-4.025
X4.4886Y-4.1398
X4.4895Y-5.5531
X4.4895Y-5.6445
X4.4895Y-5.7633
X4.4895Y-5.8781
X4.4895Y-7.2905
X4.4895Y-7.3819
X4.4895Y-7.5007
X4.4895Y-7.6155
X4.5936Y-3.7698
X4.5945Y-5.5081
X4.5945Y-7.2455
X4.9836Y-3.2698
X4.9845Y-5.0081
X4.9845Y-6.7455
X5.1536Y-3.8848
X5.1545Y-5.6231
X5.1545Y-7.3605
X5.3136Y-3.1648
X5.3145Y-4.9031
X5.3145Y-6.6405
X5.4666Y-2.0566
X5.4936Y-3.5998
X5.4945Y-5.3381
X5.4945Y-7.0755
X5.7936Y-3.5948
X5.7945Y-5.3331
X5.7945Y-7.0705
X5.9336Y-3.7148
X5.9345Y-5.4531
X5.9345Y-7.1905
X5.9353Y-3.8404
X5.9362Y-5.5786
X5.9362Y-7.316
X6.2422Y-0.6763
X6.2522Y-0.0963
X6.4686Y-3.8198
X6.4695Y-5.5581
X6.4695Y-7.2955
X6.89Y-3.13
X7.0Y-3.13
X7.0022Y-1.2898
X7.0022Y-1.3563
X7.1022Y-3.3713
X7.1022Y-3.5713
X7.1022Y-5.6213
X7.1022Y-5.7463
X7.26Y-6.0
X7.26Y-6.35
X7.26Y-6.92
X7.29Y-1.67
X7.31Y-2.98
X7.32Y-1.48
X7.335Y-3.885
X7.34Y-4.43
X7.35Y-4.97
X7.35Y-7.6
X7.4Y-6.35
X7.4Y-6.91
X7.44Y-1.34
X7.6522Y-0.0963
X7.77Y-0.91
X7.77Y-1.28
X7.8Y-0.78
X7.8722Y-5.3313
X7.8722Y-5.5327
X7.96Y-1.65
X7.99Y-1.48
X7.9972Y-5.4263
X8.02Y-3.88
X8.03Y-4.43
X8.03Y-4.97
X8.05Y-6.5
X8.05Y-7.04
X8.05Y-7.61
X8.23Y-5.9385
X8.34Y-6.17
X8.3522Y-0.8363
X8.4618Y-4.8659
X8.4622Y-4.9513
X8.48Y-6.0315
X8.482Y-5.9623
X8.49Y-1.36
X8.5472Y-3.8863
X8.5546Y-6.36
X8.5572Y-5.2313
X8.5572Y-5.5327
X8.6222Y-5.8163
X8.6222Y-5.8815
X8.63Y-2.26
X8.63Y-6.36
X8.64Y-6.56
X8.6572Y-4.7963
X8.7Y-5.99
X8.8222Y-0.6908
X8.8222Y-0.7663
X8.8472Y-5.2913
X8.95Y-1.3
X8.95Y-6.56
X8.9672Y-3.8113
X8.97Y-2.19
X8.9722Y-5.8685
X8.9722Y-5.9315
X8.98Y-6.36
X8.98Y-1.8985
X8.98Y-1.9831
X9.0Y-6.19
X9.03Y-5.68
X9.0522Y-4.8411
X9.06Y-6.36
X9.2122Y-0.9563
X9.2122Y-1.0463
X9.23Y-1.9
X9.23Y-2.08
X9.28Y-5.97
X9.4122Y-6.1644
X9.4122Y-6.2363
X9.5285Y-6.12
X9.56Y-1.42
X9.5672Y-4.4213
X9.57Y-6.49
X9.57Y-7.03
X9.5722Y-3.8713
X9.5722Y-4.9813
X9.575Y-7.59
X9.6372Y-5.4913
X9.6372Y-5.5631
X9.66Y-1.63
X9.6872Y-5.2513
X9.7822Y-0.6863
X9.7922Y-0.0963
X10.2Y-6.35
X10.2Y-6.9
X10.24Y-1.42
X10.24Y-2.93
X10.25Y-5.95
X10.25Y-7.6
X10.26Y-3.87
X10.26Y-4.42
X10.26Y-4.98
X10.3022Y-0.2163
X10.32Y-6.35
X10.33Y-6.9
X10.34Y-1.64
X10.3622Y-0.7263
X10.3622Y-5.5463
X10.3622Y-5.6663
X10.4522Y-5.5463
X10.4522Y-5.6763
X10.4722Y-4.3663
X10.4722Y-8.0463
X10.4722Y-8.1663
X10.5622Y-5.5463
X10.6122Y-4.3663
X10.6272Y-7.4213
X10.6272Y-7.4963
X10.6272Y-7.5713
X10.6822Y-0.3663
X10.7272Y-7.4213
X10.7272Y-7.5713
X10.78Y-6.43
X10.8272Y-7.4213
X10.8272Y-7.5713
X10.87Y-4.94
X10.9Y-5.45
X10.9022Y-4.2363
X10.9177Y-1.7095
X10.9177Y-2.2495
X10.9272Y-7.4213
X10.9272Y-7.5713
X10.9322Y-0.2263
X10.9322Y-0.4563
X10.9422Y-3.7163
X10.9522Y-1.0577
X10.9522Y-1.1317
X11.0272Y-7.4213
X11.0272Y-7.5713
X11.1272Y-7.4213
X11.1272Y-7.5713
X11.19Y-6.94
X11.2272Y-7.4213
X11.2272Y-7.5713
X11.27Y-5.23
X11.3272Y-7.4213
X11.3272Y-7.5713
X11.3772Y-2.4971
X11.4022Y-4.7163
X11.4272Y-7.4213
X11.4272Y-7.5713
X11.4322Y-3.3463
X11.4422Y-3.6563
X11.46Y-4.86
X11.46Y-6.43
X11.4622Y-4.1863
X11.4622Y-4.4863
X11.4677Y-1.5995
X11.5272Y-7.4213
X11.5272Y-7.5713
X11.61Y-2.93
X11.6272Y-7.4213
X11.6272Y-7.5713
X11.6522Y-3.7163
X11.6522Y-4.3863
X11.6574Y-2.241
X11.7272Y-7.4213
X11.7272Y-7.5713
X11.8272Y-7.4213
X11.8272Y-7.4963
X11.8272Y-7.5713
X11.86Y-3.04
X11.9122Y-4.0663
X11.9272Y-7.4213
X12.0022Y-3.2363
X12.0272Y-7.4213
X12.0407Y-3.9663
X12.1118Y-5.6918
X12.12Y-6.62
X12.1222Y-3.5563
X12.1272Y-7.4213
X12.1522Y-4.4363
X12.2272Y-7.4213
X12.24Y-2.02
X12.2722Y-4.2863
X12.3022Y-3.7963
X12.3022Y-3.9063
X12.3122Y-3.4863
X12.3272Y-7.4213
X12.33Y-5.8
X12.3315Y-5.8815
X12.3418Y-3.1763
X12.3522Y-0.3763
X12.4126Y-3.1763
X12.4272Y-7.4213
X12.4386Y-1.4822
X12.44Y-1.65
X12.49Y-5.8
X12.51Y-6.73
X12.5272Y-7.4213
X12.5322Y-4.0363
X12.56Y-4.85
X12.5822Y-3.8563
X12.5922Y-3.2077
X12.6022Y-7.8663
X12.6122Y-0.2063
X12.6122Y-0.4563
X12.6222Y-3.5663
X12.6272Y-7.4213
X12.6422Y-0.6863
X12.7272Y-7.4213
X12.8272Y-7.4213
X12.86Y-5.26
X12.8986Y-1.9607
X12.8986Y-2.0237
X12.9272Y-7.4213
X12.9512Y-7.8722
X12.9622Y-3.8963
X13.0272Y-7.4213
X13.0322Y-4.7123
X13.0422Y-1.3263
X13.0422Y-3.5263
X13.0686Y-1.9022
X13.0722Y-3.2363
X13.0922Y-4.1763
X13.0922Y-4.4823
X13.11Y-4.89
X13.11Y-5.45
X13.11Y-6.37
X13.1272Y-7.4213
X13.1486Y-1.6022
X13.2272Y-7.4213
X13.2822Y-4.3823
X13.3222Y-7.6423
X13.5422Y-4.0623
X13.55Y-2.99
X13.6022Y-7.9463
X13.6122Y-3.9163
X13.64Y-6.88
X13.7222Y-3.5163
X13.74Y-7.76
X13.7822Y-4.4323
X13.79Y-6.37
X13.7986Y-1.4222
X13.7986Y-2.5122
X13.8886Y-1.9422
X13.9022Y-4.2823
X13.9322Y-3.9023
T3
X0.4999Y-6.2559
X0.4999Y-6.5559
X0.5999Y-6.2559
X0.5999Y-6.5559
X2.136Y-6.2559
X2.136Y-6.5559
X2.236Y-6.2559
X2.236Y-6.5559
X5.2081Y-1.5003
X5.2081Y-1.8003
X5.3081Y-1.5003
X5.3081Y-1.8003
X8.4506Y-2.9184
X8.4506Y-3.2184
X8.5506Y-2.9184
X8.5506Y-3.2184
X8.6504Y-1.4504
X8.6504Y-1.5504
X8.6504Y-1.6504
X8.6504Y-1.7504
X8.6506Y-2.9184
X8.6506Y-3.2184
X8.7506Y-2.9184
X8.7506Y-3.2184
X8.8506Y-2.9184
X8.8506Y-3.2184
X8.9504Y-1.4504
X8.9504Y-1.5504
X8.9504Y-1.6504
X8.9504Y-1.7504
X8.9506Y-2.9184
X8.9506Y-3.2184
X9.0506Y-2.9184
X9.0506Y-3.2184
X9.1506Y-2.9184
X9.1506Y-3.2184
X11.1364Y-2.6019
X11.1364Y-2.9019
X11.2364Y-2.6019
X11.2364Y-2.9019
X12.7724Y-2.6019
X12.7724Y-2.9019
X12.8724Y-2.6019
X12.8724Y-2.9019
T4
X4.3859Y-3.4905
X4.3864Y-3.2546
X4.3868Y-5.2287
X4.3868Y-6.9661
X4.3873Y-4.9929
X4.3873Y-6.7303
X4.4859Y-3.4905
X4.4864Y-3.2546
X4.4868Y-5.2287
X4.4868Y-6.9661
X4.4873Y-4.9929
X4.4873Y-6.7303
X6.0225Y-3.2543
X6.0225Y-3.4905
X6.0234Y-4.9925
X6.0234Y-5.2287
X6.0234Y-6.7299
X6.0234Y-6.9661
X6.1225Y-3.2543
X6.1225Y-3.4905
X6.1234Y-4.9925
X6.1234Y-5.2287
X6.1234Y-6.7299
X6.1234Y-6.9661
X7.3004Y-6.601
X7.3004Y-6.701
X7.3006Y-7.1522
X7.3006Y-7.2522
X10.2996Y-6.601
X10.2996Y-6.701
X10.2996Y-7.1522
X10.2996Y-7.2522
T5
X6.8774Y-0.838
X6.8774Y-0.938
X6.9774Y-0.838
X6.9774Y-0.938
X7.0774Y-0.838
X7.0774Y-0.938
X7.1774Y-0.838
X7.1774Y-0.938
T6
X0.4571Y-4.3669
X0.5555Y-4.3669
X0.6539Y-4.3669
X1.1328Y-5.7776
X1.133Y-1.8489
X1.135Y-4.3665
X1.2313Y-5.7776
X1.2315Y-1.8489
X1.2335Y-4.3665
X1.3297Y-5.7776
X1.3299Y-1.8489
X1.3319Y-4.3665
X2.0872Y-6.0612
X2.0896Y-4.3671
X2.1856Y-6.0612
X2.188Y-4.3671
X2.2841Y-6.0612
X2.2864Y-4.3671
X2.7687Y-6.0612
X2.7709Y-4.3669
X2.8671Y-6.0612
X2.8693Y-4.3669
X2.9656Y-6.0612
X2.9677Y-4.3669
X3.9961Y-4.3174
X3.9971Y-6.0557
X3.9971Y-7.7931
X4.0946Y-4.3174
X4.0955Y-6.0557
X4.0955Y-7.7931
X4.193Y-4.3174
X4.1939Y-6.0557
X4.1939Y-7.7931
X4.6791Y-1.8492
X4.6791Y-4.5531
X4.6801Y-6.2914
X4.6801Y-8.0288
X4.7776Y-1.8492
X4.7776Y-4.5531
X4.7785Y-6.2914
X4.7785Y-8.0288
X4.876Y-1.8492
X4.876Y-4.5531
X4.8769Y-6.2914
X4.8769Y-8.0288
X5.6329Y-4.3172
X5.6339Y-1.8488
X5.6339Y-6.0555
X5.6339Y-7.7929
X5.7314Y-4.3172
X5.7323Y-1.8488
X5.7323Y-6.0555
X5.7323Y-7.7929
X5.8298Y-4.3172
X5.8307Y-1.8488
X5.8307Y-6.0555
X5.8307Y-7.7929
X6.3144Y-4.5535
X6.3154Y-6.2917
X6.3154Y-8.0291
X6.4129Y-4.5535
X6.4138Y-6.2917
X6.4138Y-8.0291
X6.5113Y-4.5535
X6.5122Y-6.2917
X6.5122Y-8.0291
X7.5425Y-2.7158
X7.6409Y-2.7158
X7.7394Y-2.7158
X8.2244Y-2.7158
X8.3228Y-2.7158
X8.4213Y-2.7158
X9.1791Y-2.7158
X9.2776Y-2.7158
X9.376Y-2.7158
X9.8606Y-2.7158
X9.9591Y-2.7158
X10.0575Y-2.7158
X11.7687Y-5.5868
X11.7693Y-2.1235
X11.8671Y-5.5868
X11.8677Y-2.1235
X11.9655Y-5.5868
X11.9661Y-2.1235
X12.7237Y-2.4072
X12.8221Y-2.4072
X12.9205Y-2.4072
X13.4049Y-5.5868
X13.4052Y-2.4072
X13.5033Y-5.5868
X13.5036Y-2.4072
X13.6018Y-5.5868
X13.602Y-2.4072
T7
X0.6222Y-0.1333
X0.6222Y-0.3833
X0.6222Y-0.6333
X1.2612Y-0.1333
X1.2612Y-0.3833
X1.2612Y-0.6333
X2.2614Y-0.1333
X2.2614Y-0.3833
X2.2614Y-0.6333
X2.9004Y-0.1333
X2.9004Y-0.3833
X2.9004Y-0.6333
X4.9354Y-0.1333
X4.9354Y-0.3833
X4.9354Y-0.6333
X5.5744Y-0.1333
X5.5744Y-0.3833
X5.5744Y-0.6333
X8.4801Y-0.1333
X8.4801Y-0.3833
X8.4801Y-0.6333
X9.1191Y-0.1333
X9.1191Y-0.3833
X9.1191Y-0.6333
X11.1527Y-0.1333
X11.1527Y-0.3833
X11.1527Y-0.6333
X11.7917Y-0.1333
X11.7917Y-0.3833
X11.7917Y-0.6333
X12.7872Y-0.1333
X12.7872Y-0.3833
X12.7872Y-0.6333
X13.4262Y-0.1333
X13.4262Y-0.3833
X13.4262Y-0.6333
T9
X0.2417Y-0.2756
X0.2417Y-7.9917
X13.8091Y-0.2756
X13.8091Y-7.9917
T10
X0.5497Y-5.2273
X0.5497Y-5.7761
X0.5504Y-1.5733
X0.5504Y-7.3197
X0.5559Y-2.7551
X0.5563Y-3.3858
X1.2313Y-6.3281
X1.2315Y-7.3212
X1.2315Y-7.79
X1.2331Y-3.3874
X1.2339Y-2.7551
X1.7094Y-0.8252
X2.1855Y-1.5733
X2.1855Y-7.3213
X2.1856Y-5.2274
X2.1874Y-3.3858
X2.1882Y-2.7535
X2.8669Y-6.3281
X2.8669Y-7.3213
X2.8671Y-5.2274
X2.8672Y-1.5733
X2.87Y-7.79
X2.8701Y-2.7535
X2.8701Y-3.3858
X3.3488Y-0.8252
X4.0956Y-3.2548
X4.0957Y-1.5736
X4.0965Y-4.9931
X4.0965Y-6.7305
X4.574Y-0.2363
X4.574Y-0.8252
X4.7776Y-3.4908
X4.7785Y-5.2291
X4.7785Y-6.9665
X5.7321Y-3.2539
X5.7331Y-4.9921
X5.7331Y-6.7295
X5.937Y-0.2363
X5.937Y-0.8252
X6.4136Y-3.4905
X6.4138Y-1.5732
X6.4146Y-5.2287
X6.4146Y-6.9661
X7.64Y-4.57
X7.6409Y-1.5733
X7.6409Y-3.0701
X7.6409Y-4.0189
X7.6409Y-5.1197
X7.6409Y-6.1
X7.6409Y-6.6512
X7.6409Y-7.2024
X7.6409Y-7.7536
X8.1189Y-0.2363
X8.1189Y-0.8252
X8.32Y-4.57
X8.3228Y-1.5733
X8.3228Y-4.0189
X8.3228Y-5.1197
X8.3228Y-6.6512
X8.3228Y-7.2024
X8.3228Y-7.7536
X9.2776Y-1.5733
X9.2776Y-4.0189
X9.2776Y-4.5697
X9.2776Y-5.1197
X9.2776Y-6.6512
X9.2776Y-7.2024
X9.2776Y-7.7536
X9.4819Y-0.2363
X9.4819Y-0.8252
X9.9591Y-1.5733
X9.9591Y-3.0701
X9.9591Y-4.0189
X9.9591Y-4.5697
X9.9591Y-5.1197
X9.9591Y-6.1
X9.9591Y-6.6512
X9.9591Y-7.2024
X9.9591Y-7.7536
X10.7094Y-0.8252
X11.1862Y-1.5733
X11.1862Y-2.1221
X11.1862Y-3.6181
X11.1862Y-4.0913
X11.1862Y-5.0356
X11.1862Y-5.5867
X11.1862Y-6.5316
X11.8677Y-2.6741
X11.8677Y-3.6181
X11.8677Y-6.5316
X12.3433Y-0.8252
X12.8221Y-1.5733
X12.8222Y-3.6183
X12.8222Y-4.0915
X12.8222Y-5.0356
X12.8222Y-5.5867
X12.8222Y-6.5316
X13.5033Y-2.6741
X13.5033Y-3.6183
X13.5033Y-6.5316
X13.5036Y-1.5733
T5
G00X6.9841Y-0.0738
M15
G01X7.0707Y-0.0738
M16
G05
G00X6.9762Y-0.3219
M15
G01X7.0785Y-0.3219
M16
G05
G00X7.2163Y-0.1644
M15
G01X7.2163Y-0.251
M16
G05
T8
G00X0.3823Y-4.0972
M15
G01X0.3823Y-4.0854
M16
G05
G00X0.7287Y-4.0972
M15
G01X0.7287Y-4.0854
M16
G05
G00X1.058Y-5.5079
M15
G01X1.058Y-5.4961
M16
G05
G00X1.0582Y-1.5792
M15
G01X1.0582Y-1.5674
M16
G05
G00X1.0602Y-4.0969
M15
G01X1.0602Y-4.085
M16
G05
G00X1.4045Y-5.5079
M15
G01X1.4045Y-5.4961
M16
G05
G00X1.4047Y-1.5792
M15
G01X1.4047Y-1.5674
M16
G05
G00X1.4067Y-4.0969
M15
G01X1.4067Y-4.085
M16
G05
G00X2.0124Y-5.7915
M15
G01X2.0124Y-5.7797
M16
G05
G00X2.0148Y-4.0974
M15
G01X2.0148Y-4.0856
M16
G05
G00X2.3589Y-5.7915
M15
G01X2.3589Y-5.7797
M16
G05
G00X2.3612Y-4.0974
M15
G01X2.3612Y-4.0856
M16
G05
G00X2.6939Y-5.7915
M15
G01X2.6939Y-5.7797
M16
G05
G00X2.6961Y-4.0972
M15
G01X2.6961Y-4.0854
M16
G05
G00X3.0404Y-5.7915
M15
G01X3.0404Y-5.7797
M16
G05
G00X3.0425Y-4.0972
M15
G01X3.0425Y-4.0854
M16
G05
G00X3.9213Y-4.0477
M15
G01X3.9213Y-4.0359
M16
G05
G00X3.9223Y-5.786
M15
G01X3.9223Y-5.7742
M16
G05
G00X3.9223Y-7.5234
M15
G01X3.9223Y-7.5116
M16
G05
G00X4.2678Y-4.0477
M15
G01X4.2678Y-4.0359
M16
G05
G00X4.2687Y-5.786
M15
G01X4.2687Y-5.7742
M16
G05
G00X4.2687Y-7.5234
M15
G01X4.2687Y-7.5116
M16
G05
G00X4.6043Y-1.5795
M15
G01X4.6043Y-1.5677
M16
G05
G00X4.6043Y-4.2835
M15
G01X4.6043Y-4.2717
M16
G05
G00X4.6053Y-6.0217
M15
G01X4.6053Y-6.0099
M16
G05
G00X4.6053Y-7.7591
M15
G01X4.6053Y-7.7473
M16
G05
G00X4.9508Y-1.5795
M15
G01X4.9508Y-1.5677
M16
G05
G00X4.9508Y-4.2835
M15
G01X4.9508Y-4.2717
M16
G05
G00X4.9517Y-6.0217
M15
G01X4.9517Y-6.0099
M16
G05
G00X4.9517Y-7.7591
M15
G01X4.9517Y-7.7473
M16
G05
G00X5.5581Y-4.0476
M15
G01X5.5581Y-4.0357
M16
G05
G00X5.5591Y-1.5791
M15
G01X5.5591Y-1.5673
M16
G05
G00X5.5591Y-5.7858
M15
G01X5.5591Y-5.774
M16
G05
G00X5.5591Y-7.5232
M15
G01X5.5591Y-7.5114
M16
G05
G00X5.9046Y-4.0476
M15
G01X5.9046Y-4.0357
M16
G05
G00X5.9055Y-1.5791
M15
G01X5.9055Y-1.5673
M16
G05
G00X5.9055Y-5.7858
M15
G01X5.9055Y-5.774
M16
G05
G00X5.9055Y-7.5232
M15
G01X5.9055Y-7.5114
M16
G05
G00X6.2396Y-4.2838
M15
G01X6.2396Y-4.272
M16
G05
G00X6.2406Y-6.022
M15
G01X6.2406Y-6.0102
M16
G05
G00X6.2406Y-7.7594
M15
G01X6.2406Y-7.7476
M16
G05
G00X6.5861Y-4.2838
M15
G01X6.5861Y-4.272
M16
G05
G00X6.587Y-6.022
M15
G01X6.587Y-6.0102
M16
G05
G00X6.587Y-7.7594
M15
G01X6.587Y-7.7476
M16
G05
G00X7.4677Y-2.4461
M15
G01X7.4677Y-2.4343
M16
G05
G00X7.8142Y-2.4461
M15
G01X7.8142Y-2.4343
M16
G05
G00X8.1496Y-2.4461
M15
G01X8.1496Y-2.4343
M16
G05
G00X8.4961Y-2.4461
M15
G01X8.4961Y-2.4343
M16
G05
G00X9.1043Y-2.4461
M15
G01X9.1043Y-2.4343
M16
G05
G00X9.4508Y-2.4461
M15
G01X9.4508Y-2.4343
M16
G05
G00X9.7858Y-2.4461
M15
G01X9.7858Y-2.4343
M16
G05
G00X10.1323Y-2.4461
M15
G01X10.1323Y-2.4343
M16
G05
G00X11.6939Y-5.3171
M15
G01X11.6939Y-5.3053
M16
G05
G00X11.6945Y-1.8538
M15
G01X11.6945Y-1.842
M16
G05
G00X12.0403Y-5.3171
M15
G01X12.0403Y-5.3053
M16
G05
G00X12.0409Y-1.8538
M15
G01X12.0409Y-1.842
M16
G05
G00X12.6489Y-2.1375
M15
G01X12.6489Y-2.1257
M16
G05
G00X12.9953Y-2.1375
M15
G01X12.9953Y-2.1257
M16
G05
G00X13.3301Y-5.3171
M15
G01X13.3301Y-5.3053
M16
G05
G00X13.3304Y-2.1375
M15
G01X13.3304Y-2.1257
M16
G05
G00X13.6766Y-5.3171
M15
G01X13.6766Y-5.3053
M16
G05
G00X13.6768Y-2.1375
M15
G01X13.6768Y-2.1257
M16
G05
T0
M30
